<svg width="98" height="45" viewBox="0 0 98 45" fill="none" xmlns="http://www.w3.org/2000/svg">
<g clip-path="url(#clip0)">
<path d="M9.97969 16.9805C5.11338 16.0245 2.77755 15.4327 2.77755 12.6102C2.77755 9.90147 5.00108 8.55091 9.34333 8.55091C14.2096 8.55091 17.1294 10.3264 17.1294 13.2855V13.3689H18.4396V13.2855C18.4396 9.39312 15.1604 7.13965 9.45563 7.13965C5.75723 7.13965 1.33263 8.09566 1.33263 12.6936C1.33263 16.6695 4.58932 17.3144 9.50803 18.3311C14.569 19.3478 17.631 19.9396 17.631 23.1491C17.631 27.3222 12.4877 27.7699 10.2567 27.7699C5.00108 27.7699 1.8567 25.6302 1.8567 22.0186V21.9351H0.524078V22.0186C0.524078 28.4755 7.31445 29.1508 10.2043 29.1508C12.8995 29.1508 15.1305 28.6121 16.6578 27.5726C18.2449 26.5028 19.0759 24.8942 19.0759 22.9215C19.1059 18.7788 15.4599 18.0731 9.97969 16.9805Z" fill="#545456"/>
<path d="M10.1004 16.5406C8.94743 16.313 7.79449 16.0929 6.66401 15.7818C5.89289 15.5694 5.10679 15.3266 4.42551 14.8941C3.29503 14.1733 2.99556 12.8227 3.36989 11.5632C3.84904 9.97746 5.56348 9.40081 7.02337 9.15801C8.19128 8.96833 9.40412 8.96074 10.5795 9.03661C11.6576 9.11249 12.7432 9.29459 13.7613 9.67396C15.4009 10.281 16.6811 11.5101 16.6811 13.3614C16.6811 13.6042 16.8833 13.8167 17.1303 13.8167C17.5645 13.8167 17.9988 13.8167 18.4405 13.8167C18.6801 13.8167 18.8897 13.6118 18.8897 13.3614C18.8897 11.2825 17.9688 9.45392 16.2469 8.30822C14.1357 6.89696 11.3881 6.62381 8.92497 6.68451C6.75385 6.73762 4.34315 7.10182 2.62872 8.56619C0.959198 9.99263 0.412673 12.6482 1.22123 14.6968C2.01481 16.6999 4.0961 17.4966 6.01267 18.0125C8.6854 18.7258 11.4629 19.0141 14.0982 19.8639C14.9667 20.1446 15.8875 20.5088 16.5164 21.2068C17.1079 21.8518 17.2501 22.7547 17.1603 23.6045C16.9432 25.6683 15.0266 26.6243 13.2373 27.0188C11.2234 27.4665 8.99235 27.4437 6.99342 26.9733C5.03192 26.5105 3.04048 25.4255 2.4715 23.3313C2.34422 22.8761 2.30679 22.4057 2.30679 21.9352C2.30679 21.6924 2.10465 21.48 1.85759 21.48C1.41588 21.48 0.966684 21.48 0.524973 21.48C0.285401 21.48 0.0757751 21.6849 0.0757751 21.9352C0.0757751 23.2403 0.322834 24.5453 0.981658 25.6834C1.55813 26.6698 2.40412 27.4665 3.37738 28.0431C5.14422 29.0978 7.24797 29.4847 9.27684 29.591C12.1517 29.7351 15.5506 29.3785 17.7517 27.2844C19.6833 25.4482 20.2747 21.8745 18.5004 19.7197C17.6768 18.7182 16.4415 18.1643 15.2512 17.7622C13.5817 17.1931 11.8298 16.882 10.1004 16.5406C9.53888 16.4268 9.29182 17.3069 9.8608 17.4207C11.3132 17.709 12.7806 17.9898 14.2105 18.3995C15.2587 18.6954 16.3442 19.0672 17.2127 19.7425C19.0918 21.1993 19.002 24.2266 17.6619 26.0325C15.9025 28.3921 12.4437 28.7715 9.75599 28.7108C7.98914 28.6653 6.14743 28.4073 4.53032 27.6486C3.5346 27.1857 2.60626 26.518 1.97738 25.6C1.24369 24.5074 0.974171 23.2403 0.974171 21.9428C0.824438 22.0946 0.674706 22.2463 0.524973 22.3981C0.966684 22.3981 1.41588 22.3981 1.85759 22.3981C1.70786 22.2463 1.55813 22.0946 1.4084 21.9428C1.4084 24.0673 2.46401 25.8655 4.28326 26.9126C6.32711 28.0886 8.86508 28.3314 11.1784 28.21C13.0426 28.1038 15.0715 27.7396 16.5539 26.518C18.0512 25.2813 18.5977 22.8685 17.587 21.1537C16.5089 19.3252 13.9859 18.832 12.0993 18.4147C10.6544 18.096 9.19449 17.8304 7.74957 17.5042C6.59663 17.2462 5.42123 16.9807 4.33567 16.5026C3.51963 16.1384 2.74102 15.6377 2.28433 14.841C1.76775 13.9533 1.69289 12.8 1.85011 11.806C2.0223 10.7362 2.54636 9.78777 3.39984 9.12766C4.23834 8.47515 5.2715 8.11854 6.28968 7.8985C7.39021 7.66329 8.52069 7.595 9.64369 7.60259C11.0137 7.61777 12.3913 7.75434 13.7164 8.14889C15.6105 8.71794 17.3549 9.93193 17.849 11.9729C17.9613 12.4358 17.9988 12.8986 17.9988 13.3766C18.1485 13.2249 18.2982 13.0731 18.448 12.9214C18.0137 12.9214 17.5795 12.9214 17.1378 12.9214C17.2875 13.0731 17.4373 13.2249 17.587 13.3766C17.587 8.47515 11.2833 7.82263 7.69717 8.17165C5.8854 8.34616 3.71428 8.87728 2.78594 10.6527C2.06722 12.0261 2.14209 13.9912 3.26508 15.1217C3.93888 15.8046 4.87471 16.184 5.76561 16.4647C7.10572 16.8896 8.49075 17.1476 9.86829 17.4207C10.4298 17.5269 10.6694 16.6468 10.1004 16.5406Z" fill="#545456"/>
<path d="M43.3625 8.14902V12.0717C42.8609 10.9184 41.97 9.90171 40.8021 9.16573C39.2972 8.20972 37.4331 7.72412 35.2395 7.72412C32.0652 7.72412 29.647 8.79395 28.0598 10.8805C26.6673 12.7166 25.9186 15.3343 25.9186 18.4679C25.9186 21.5712 26.6448 24.1888 28.0598 25.9946C29.6769 28.0812 32.0951 29.151 35.2395 29.151C37.4106 29.151 39.2748 28.6427 40.7721 27.6259C41.97 26.8368 42.8309 25.7367 43.3325 24.4999V28.6199H44.725V8.12625H43.3625V8.14902ZM43.3625 18.4452C43.3625 24.3937 40.4127 27.808 35.2919 27.808C32.3721 27.808 30.201 26.7382 28.8684 24.6213C27.6181 22.6486 27.3411 20.1675 27.3411 18.4452C27.3411 10.357 32.3197 9.14297 35.2694 9.14297C40.6373 9.13538 43.3625 12.269 43.3625 18.4452Z" fill="#545456"/>
<path d="M42.9134 8.14894C42.9134 9.45398 42.9134 10.759 42.9134 12.0716C43.1904 11.9958 43.4749 11.9199 43.7519 11.844C42.1422 8.2324 37.8674 7.04118 34.2663 7.31433C32.6193 7.43572 30.9722 7.88338 29.5872 8.82422C28.2695 9.72713 27.2663 11.0094 26.615 12.4738C25.8588 14.1885 25.5294 16.055 25.477 17.9291C25.4246 19.8412 25.6193 21.8063 26.2706 23.6121C26.8171 25.1372 27.7005 26.5409 28.9508 27.5728C30.216 28.6198 31.7433 29.2344 33.3455 29.4772C37.4107 30.0842 42.0674 28.7564 43.7668 24.6288C43.4749 24.5909 43.1754 24.5454 42.8834 24.5074C42.8834 25.8808 42.8834 27.2541 42.8834 28.6274C42.8834 28.8702 43.0856 29.0826 43.3326 29.0826C43.7968 29.0826 44.261 29.0826 44.7251 29.0826C44.9647 29.0826 45.1743 28.8778 45.1743 28.6274C45.1743 26.3132 45.1743 24.0067 45.1743 21.6925C45.1743 18.0126 45.1743 14.3327 45.1743 10.6528C45.1743 9.81059 45.1743 8.96838 45.1743 8.12618C45.1743 7.88338 44.9722 7.67093 44.7251 7.67093C44.2684 7.67093 43.8192 7.67093 43.3626 7.67093C43.123 7.67093 42.9134 7.87579 42.9134 8.12618C42.9134 8.13377 42.9134 8.14136 42.9134 8.14894C42.9134 8.73317 43.8118 8.73317 43.8118 8.14894C43.8118 8.14136 43.8118 8.13377 43.8118 8.11859C43.662 8.27034 43.5123 8.42209 43.3626 8.57384C43.8192 8.57384 44.2684 8.57384 44.7251 8.57384C44.5754 8.42209 44.4257 8.27034 44.2759 8.11859C44.2759 10.4328 44.2759 12.7393 44.2759 15.0535C44.2759 18.7334 44.2759 22.4133 44.2759 26.0932C44.2759 26.9354 44.2759 27.7776 44.2759 28.6198C44.4257 28.4681 44.5754 28.3163 44.7251 28.1646C44.261 28.1646 43.7968 28.1646 43.3326 28.1646C43.4823 28.3163 43.6321 28.4681 43.7818 28.6198C43.7818 27.2465 43.7818 25.8732 43.7818 24.4998C43.7818 23.946 43.0856 23.9308 42.8984 24.3784C41.5283 27.7169 37.8075 28.8626 34.5134 28.6805C33.0086 28.5971 31.5112 28.2101 30.231 27.3907C29.0257 26.6167 28.0898 25.471 27.4759 24.1736C26.7572 22.6561 26.4652 20.9489 26.3904 19.2873C26.3155 17.5042 26.4727 15.6908 27.0043 13.9837C27.446 12.5724 28.1797 11.2446 29.2652 10.2279C30.3358 9.22636 31.6984 8.64213 33.1209 8.36898C36.6845 7.68611 41.3412 8.63454 42.9733 12.2993C43.1604 12.7242 43.8118 12.489 43.8118 12.0716C43.8118 10.7666 43.8118 9.46157 43.8118 8.14894C43.8118 7.56471 42.9134 7.56471 42.9134 8.14894Z" fill="#545456"/>
<path d="M42.9134 18.4453C42.9059 20.3649 42.6139 22.3452 41.6406 24.022C40.8321 25.4257 39.5519 26.4576 38.0246 26.9508C36.1829 27.5426 34.0193 27.5198 32.2075 26.8294C30.1337 26.0403 28.8385 24.1814 28.2471 22.0721C27.6631 19.9779 27.6182 17.6334 28.0524 15.5014C28.3743 13.9232 29.0407 12.4133 30.231 11.3207C32.1027 9.60592 34.9177 9.31001 37.2984 9.77284C38.8182 10.0688 40.2257 10.782 41.1989 12.0339C42.2471 13.3769 42.6888 15.1372 42.8385 16.814C42.8984 17.3603 42.9134 17.899 42.9134 18.4453C42.9134 19.0295 43.8118 19.0295 43.8118 18.4453C43.8043 16.4043 43.5348 14.2722 42.554 12.4588C41.723 10.9337 40.3979 9.82595 38.7882 9.23414C37.2984 8.68784 35.6064 8.56644 34.0342 8.75613C32.7316 8.91546 31.4514 9.31001 30.3583 10.0688C27.0268 12.3905 26.5027 17.1175 27.0792 20.8657C27.446 23.2481 28.4941 25.6078 30.538 26.9735C32.4096 28.2255 34.8353 28.4607 37.0064 28.1192C38.7733 27.8385 40.4503 27.0039 41.6257 25.6078C42.9059 24.0827 43.5123 22.1403 43.7294 20.1752C43.7893 19.5986 43.8193 19.0143 43.8193 18.4377C43.8193 17.861 42.9209 17.8535 42.9134 18.4453Z" fill="#545456"/>
<path d="M97.2813 17.7925V16.92C97.2813 8.54345 92.138 6.79834 87.7957 6.79834C84.4866 6.79834 81.9786 7.98198 80.3391 10.3493C78.6695 12.7772 78.3102 15.8501 78.3102 17.9898C78.3102 25.4331 81.4845 29.0674 88.0503 29.0674C93.1412 29.0674 96.5102 26.5863 97.0941 22.4436V22.3602H95.754V22.4133C95.1401 25.7973 92.415 27.6562 88.0503 27.6562C82.4578 27.6562 79.7326 24.4998 79.7326 17.9822V17.7546H97.2888V17.7925H97.2813ZM79.7551 16.4723C80.2268 10.9714 82.9519 8.2096 87.8481 8.2096C92.9915 8.2096 95.6941 11.0018 95.8289 16.4723H79.7551Z" fill="#545456"/>
<path d="M97.7305 17.7926C97.7305 15.6226 97.6107 13.4678 96.7423 11.4495C96.0161 9.75753 94.7658 8.35385 93.1487 7.50406C91.6813 6.73773 90.0342 6.41147 88.3947 6.35077C85.9989 6.25972 83.5583 6.7529 81.6417 8.27798C79.523 9.96997 78.4374 12.6407 78.0556 15.2812C77.7112 17.6257 77.7711 20.1068 78.3251 22.4134C78.7668 24.2495 79.6203 26.0326 81.0503 27.2845C82.5102 28.5668 84.3594 29.1889 86.2535 29.4165C88.5818 29.6897 91.0674 29.4772 93.2086 28.4529C95.1177 27.5424 96.585 25.9112 97.2289 23.8701C97.3786 23.3997 97.5433 22.8534 97.5433 22.3527C97.5433 22.1099 97.3412 21.8974 97.0941 21.8974C96.6524 21.8974 96.2032 21.8974 95.7615 21.8974C95.5219 21.8974 95.3123 22.1023 95.3123 22.3527C95.3123 22.6713 95.1476 23.0735 95.0428 23.3694C94.9155 23.7184 94.7508 24.0522 94.5562 24.3709C94.1743 24.9931 93.6578 25.5242 93.0513 25.9263C91.5615 26.9279 89.7123 27.201 87.9529 27.1934C86.4706 27.1858 84.9433 26.9506 83.6332 26.1995C82.4652 25.5242 81.6043 24.4695 81.0652 23.2252C80.3241 21.5104 80.1818 19.5984 80.1818 17.7547C80.0321 17.9064 79.8823 18.0582 79.7326 18.2099C81.7166 18.2099 83.693 18.2099 85.677 18.2099C88.8214 18.2099 91.9658 18.2099 95.1102 18.2099C95.8364 18.2099 96.5626 18.2099 97.2888 18.2099C97.1391 18.0582 96.9893 17.9064 96.8396 17.7547C96.8396 17.7623 96.8396 17.7698 96.8396 17.785C96.8321 18.3768 97.7305 18.3844 97.7305 17.7926C97.7305 17.785 97.7305 17.7774 97.7305 17.7623C97.7305 17.5195 97.5284 17.307 97.2813 17.307C95.2973 17.307 93.3209 17.307 91.3369 17.307C88.1925 17.307 85.0481 17.307 81.9037 17.307C81.1775 17.307 80.4513 17.307 79.7251 17.307C79.4856 17.307 79.2759 17.5119 79.2759 17.7623C79.2759 21.0704 79.8824 24.8186 82.8246 26.7761C84.1947 27.6866 85.8492 28.0356 87.4663 28.1039C89.4128 28.1874 91.5016 27.9218 93.2086 26.9051C94.0096 26.4347 94.6984 25.7898 95.215 25.0083C95.477 24.6137 95.6866 24.1812 95.8588 23.7411C96.0161 23.3238 96.2032 22.8079 96.2032 22.3602C96.0535 22.512 95.9038 22.6637 95.754 22.8155C96.1957 22.8155 96.6449 22.8155 97.0866 22.8155C96.9369 22.6637 96.7872 22.512 96.6375 22.3602C96.6375 22.8079 96.4653 23.3011 96.3305 23.726C96.1808 24.1812 95.9861 24.6137 95.7465 25.0234C95.2674 25.8277 94.6161 26.5257 93.8524 27.0493C92.0332 28.3088 89.7722 28.6654 87.6086 28.6123C85.8192 28.5668 83.985 28.2177 82.4503 27.2314C81.0578 26.3285 80.092 24.9248 79.538 23.3618C78.8417 21.3663 78.677 19.1735 78.7818 17.0794C78.9016 14.5983 79.5305 11.9503 81.1626 10.0231C82.6898 8.21728 84.8909 7.38266 87.1968 7.27644C88.754 7.20815 90.3487 7.36749 91.8161 7.91378C93.2759 8.45249 94.5412 9.43885 95.3722 10.7667C96.5177 12.6028 96.8321 14.8259 96.8321 16.958C96.8321 17.2387 96.8321 17.5195 96.8321 17.8002C96.8321 18.3768 97.7305 18.3844 97.7305 17.7926Z" fill="#545456"/>
<path d="M80.2043 16.4726C80.3615 14.7427 80.7583 12.9672 81.7241 11.5105C82.5401 10.2813 83.7605 9.4315 85.1605 9.02178C86.7851 8.54377 88.6268 8.53619 90.2663 8.92315C91.6663 9.24941 92.969 9.96262 93.8524 11.1463C94.9829 12.6637 95.3273 14.6213 95.3797 16.4802C95.5294 16.3285 95.6792 16.1767 95.8289 16.025C94.0171 16.025 92.2054 16.025 90.3936 16.025C87.5038 16.025 84.6214 16.025 81.7316 16.025C81.0653 16.025 80.4064 16.025 79.7401 16.025C79.1637 16.025 79.1637 16.9355 79.7401 16.9355C81.5519 16.9355 83.3637 16.9355 85.1754 16.9355C88.0653 16.9355 90.9476 16.9355 93.8375 16.9355C94.5038 16.9355 95.1626 16.9355 95.8289 16.9355C96.0685 16.9355 96.2856 16.7306 96.2781 16.4802C96.2257 14.6137 95.8963 12.6789 94.8931 11.078C94.0171 9.68189 92.677 8.7107 91.1273 8.21752C89.353 7.64846 87.3241 7.60293 85.5048 7.99748C83.9027 8.33891 82.4129 9.16594 81.3797 10.471C80.0246 12.1706 79.5006 14.3406 79.3059 16.4802C79.2535 17.0569 80.1519 17.0493 80.2043 16.4726Z" fill="#545456"/>
<path d="M61.9744 14.7504L61.6674 16.6397H63.8385L63.5316 14.7504C63.8086 14.5228 63.9733 14.1889 63.9733 13.7944C63.9733 13.1191 63.4193 12.5576 62.753 12.5576C62.0867 12.5576 61.5327 13.1191 61.5327 13.7944C61.5327 14.1889 61.6974 14.5228 61.9744 14.7504Z" fill="#545456"/>
<path d="M61.5476 14.6289C61.4428 15.2587 61.3455 15.8884 61.2407 16.5182C61.1958 16.8065 61.3605 17.0948 61.6749 17.0948C62.4011 17.0948 63.1198 17.0948 63.846 17.0948C64.1605 17.0948 64.3252 16.8065 64.2803 16.5182C64.1754 15.8884 64.0781 15.2587 63.9733 14.6289C63.9359 14.7731 63.8984 14.9248 63.861 15.069C64.9915 14.0675 64.2803 12.0947 62.768 12.0947C61.2482 12.0947 60.537 14.0675 61.6749 15.069C62.1091 15.456 62.7455 14.811 62.3113 14.4241C61.7722 13.9461 62.0268 12.9369 62.8279 13.0052C63.1423 13.028 63.4118 13.248 63.5091 13.5515C63.569 13.726 63.5615 13.9309 63.4942 14.1054C63.4193 14.2799 63.2546 14.3634 63.1648 14.5227C63.0075 14.7959 63.2022 15.3801 63.2471 15.6684C63.307 16.0326 63.3669 16.3968 63.4268 16.761C63.569 16.5713 63.7188 16.374 63.861 16.1844C63.1348 16.1844 62.4161 16.1844 61.6899 16.1844C61.8321 16.374 61.9819 16.5713 62.1241 16.761C62.2289 16.1312 62.3263 15.5015 62.4311 14.8717C62.5059 14.2951 61.6375 14.0523 61.5476 14.6289Z" fill="#545456"/>
<path d="M73.8556 7.38999C73.8032 2.85271 71.8268 0.50819 67.9861 0.455078H67.8738H67.8439H67.7615C63.9508 0.50819 61.9743 2.82236 61.892 7.30652C55.3786 7.70107 54.6599 12.3825 54.6599 14.3552C54.6599 17.1171 55.9401 19.3478 58.1936 20.5011C54.9968 20.8653 53.462 21.9958 53.462 23.9382C53.462 26.8441 57.692 26.9276 61.7797 26.9807C65.8973 27.0338 70.1498 27.0945 70.1498 30.0005V32.1174H71.5722V30.0005C71.5722 28.9307 71.2353 28.0581 70.599 27.4056C68.8171 25.5998 64.8941 25.6302 61.4428 25.6302C58.7476 25.6302 56.2096 25.6605 55.3262 24.7576C55.1016 24.53 54.9893 24.2493 54.9893 23.9154C54.9893 22.7014 55.9102 21.4647 62.7754 21.4647C65.5604 21.4647 67.6717 20.7059 69.0941 19.1808C70.2621 17.9441 70.9059 16.2218 70.9059 14.3021C70.9059 12.2991 70.1797 7.61761 63.5091 7.28376C63.5615 3.56592 64.8717 1.95739 67.9038 1.92704C70.9359 1.95739 72.246 3.56592 72.2984 7.33687V7.38999H73.8856H73.8556ZM62.8653 8.71779C67.0653 8.71779 69.3786 10.6905 69.3786 14.2414C69.3786 17.9896 67.0728 20.0762 62.8428 20.0762C57.3102 20.0762 56.1348 16.9198 56.1348 14.2414C56.1348 10.6905 58.5305 8.71779 62.8653 8.71779Z" fill="#545456"/>
<path d="M74.3048 7.39025C74.2824 5.80448 74.0503 4.13525 73.2417 2.74675C72.5604 1.5707 71.4824 0.73608 70.2022 0.326358C67.6867 -0.470322 64.4674 0.0228612 62.8278 2.26115C61.7797 3.69518 61.4877 5.56168 61.4503 7.2992C61.6 7.14746 61.7498 6.99571 61.8995 6.84396C59.2043 7.01847 56.4642 8.0276 55.1166 10.5618C54.1284 12.4131 53.9487 14.7652 54.5626 16.7683C55.1091 18.5589 56.3294 20.0309 57.9765 20.8883C58.0514 20.6076 58.1262 20.3192 58.2011 20.0385C56.3819 20.2509 54.0161 20.7365 53.2524 22.6789C52.9455 23.4604 52.938 24.4013 53.2974 25.1676C53.6717 25.9567 54.4353 26.4271 55.2139 26.723C56.2097 27.1024 57.3027 27.2314 58.3508 27.3148C59.5936 27.4135 60.8439 27.4211 62.0941 27.4362C63.3369 27.4514 64.5797 27.4742 65.815 27.5956C66.7733 27.6942 67.8214 27.8384 68.6749 28.3164C69.3711 28.7033 69.7155 29.2876 69.723 30.0918C69.723 30.7671 69.723 31.4348 69.723 32.1101C69.723 32.3529 69.9252 32.5653 70.1722 32.5653C70.6439 32.5653 71.1155 32.5653 71.5947 32.5653C71.8342 32.5653 72.0439 32.3605 72.0439 32.1101C72.0439 30.6609 72.246 29.0068 71.4449 27.7246C70.2695 25.8429 67.7615 25.4559 65.7476 25.2814C63.1348 25.0614 60.507 25.3118 57.9016 25.0841C57.3776 25.0386 56.8535 24.9703 56.3594 24.8034C56.0075 24.6896 55.5883 24.4999 55.4835 24.0978C55.4535 23.984 55.4685 23.8701 55.4685 23.7563C55.4685 23.597 55.4385 23.8019 55.4835 23.6425C55.4984 23.5818 55.5134 23.5135 55.5359 23.4528C55.5658 23.3466 55.5134 23.4908 55.5434 23.4377C55.5583 23.4073 55.5733 23.3694 55.5958 23.339C55.6182 23.3087 55.6332 23.2707 55.6557 23.2404C55.7006 23.1645 55.6631 23.2252 55.6706 23.2252C55.7305 23.1569 55.7904 23.0962 55.8503 23.0355C55.9102 22.9748 55.9102 22.9824 55.8952 22.99C55.9327 22.9597 55.9701 22.9369 56.0075 22.9141C56.1048 22.8534 56.2022 22.7927 56.2995 22.7396C56.8161 22.4741 57.4824 22.3223 58.0963 22.2161C59.1294 22.034 60.1851 21.9733 61.2332 21.9354C62.5508 21.8898 63.8685 21.9429 65.1711 21.7001C67.3498 21.298 69.3487 20.1068 70.4417 18.1113C71.3027 16.5483 71.5348 14.6969 71.2727 12.9367C71.0856 11.6696 70.584 10.4556 69.7679 9.46162C68.6524 8.09588 66.9829 7.33714 65.2909 7.01847C64.707 6.91225 64.1155 6.84396 63.5241 6.81361C63.6738 6.96536 63.8236 7.11711 63.9733 7.26886C64.0107 5.39476 64.3626 3.16406 66.399 2.56465C68.0161 2.08664 70.2471 2.29909 71.1679 3.91521C71.7519 4.93951 71.8642 6.22179 71.8642 7.38267C71.8642 7.62546 72.0663 7.83791 72.3134 7.83791C72.8449 7.83791 73.369 7.83791 73.9005 7.83791C74.477 7.83791 74.477 6.92742 73.9005 6.92742C73.8931 6.92742 73.8856 6.92742 73.8706 6.92742C73.2941 6.92742 73.2941 7.83791 73.8706 7.83791C73.8781 7.83791 73.8856 7.83791 73.9005 7.83791C74.477 7.83791 74.477 6.92742 73.9005 6.92742C73.369 6.92742 72.8449 6.92742 72.3134 6.92742C72.4631 7.07917 72.6129 7.23092 72.7626 7.38267C72.7626 5.14438 72.2235 2.61017 69.9102 1.76797C67.9711 1.06234 65.2834 1.39619 64.0482 3.20199C63.2546 4.36287 63.1048 5.89553 63.0749 7.26886C63.0674 7.52683 63.2845 7.70893 63.5241 7.7241C65.3433 7.82274 67.2674 8.2704 68.6375 9.57543C69.5358 10.4328 70.0899 11.5558 70.3294 12.7697C70.6289 14.2341 70.4941 15.9792 69.7979 17.3981C68.7947 19.4239 66.8556 20.5165 64.6995 20.8655C63.4118 21.0704 62.0941 20.9869 60.7915 21.04C59.7808 21.0856 58.7701 21.169 57.7744 21.3511C56.7712 21.5332 55.5583 21.8367 54.922 22.7244C54.7198 23.0052 54.615 23.3314 54.5776 23.6729C54.4952 24.4771 54.9145 25.1448 55.6257 25.4939C56.584 25.9567 57.7145 26.0098 58.7551 26.0553C60.1027 26.1084 61.4503 26.0781 62.7979 26.0857C63.9957 26.0933 65.2011 26.1236 66.3915 26.2602C67.4396 26.3816 68.5326 26.594 69.4685 27.1024C70.4043 27.6183 71.0257 28.4681 71.1305 29.5607C71.1904 30.1981 71.153 30.8582 71.153 31.4955C71.153 31.7004 71.153 31.9052 71.153 32.1101C71.3027 31.9583 71.4524 31.8066 71.6022 31.6548C71.1305 31.6548 70.6588 31.6548 70.1797 31.6548C70.3294 31.8066 70.4792 31.9583 70.6289 32.1101C70.6289 31.5259 70.6289 30.9416 70.6289 30.3574C70.6289 29.6973 70.5765 29.0524 70.2022 28.4909C69.1241 26.8899 66.7134 26.7306 64.9915 26.6244C62.6032 26.4726 60.2 26.6092 57.8118 26.3588C56.4193 26.2147 53.9936 25.8808 53.9337 24.0219C53.8663 21.7457 56.4492 21.1614 58.2161 20.9566C58.6129 20.9111 58.8824 20.3344 58.4407 20.1068C57.138 19.4239 56.0974 18.3313 55.5733 16.9277C55.1765 15.8502 55.0567 14.6894 55.169 13.5437C55.3262 11.8972 56.1048 10.1748 57.5123 9.15054C58.7925 8.22487 60.3647 7.85309 61.9145 7.75445C62.1615 7.73927 62.3562 7.55718 62.3637 7.2992C62.3936 5.88794 62.5957 4.41598 63.3145 3.17923C63.9059 2.1701 64.8417 1.47206 65.9498 1.15339C68.0909 0.531219 70.9284 0.887828 72.276 2.86056C73.1744 4.17318 73.3989 5.81966 73.4289 7.38267C73.4139 7.97449 74.3123 7.97449 74.3048 7.39025Z" fill="#545456"/>
<path d="M62.8653 9.17323C64.2204 9.18082 65.6354 9.36292 66.8182 10.0761C67.784 10.6528 68.4503 11.5709 68.7423 12.671C69.3487 14.9776 68.66 17.7015 66.4813 18.87C65.261 19.5225 63.8236 19.6666 62.461 19.6287C61.091 19.5908 59.6685 19.348 58.5156 18.5589C56.876 17.4359 56.3819 15.2659 56.6439 13.3767C56.8161 12.1172 57.4375 10.979 58.4931 10.2658C59.7733 9.39327 61.3605 9.18082 62.8653 9.17323C63.4418 9.17323 63.4418 8.26274 62.8653 8.26274C60.0428 8.27792 56.9284 9.21117 55.9701 12.2158C55.2963 14.3554 55.6931 17.1476 57.3327 18.7486C58.3658 19.7577 59.7658 20.2433 61.1733 20.433C62.7829 20.653 64.5348 20.5999 66.0771 20.0308C67.3273 19.568 68.4204 18.741 69.0717 17.5422C69.738 16.3054 69.9327 14.7955 69.7755 13.407C69.6033 11.8971 68.9519 10.5314 67.7316 9.60572C66.3466 8.55865 64.5423 8.27033 62.8578 8.26274C62.2888 8.25516 62.2888 9.16565 62.8653 9.17323Z" fill="#545456"/>
<path d="M1.05565 36.124H0.554047V43.8177H1.05565V36.124Z" fill="#A1CE57"/>
<path d="M0.55405 36.3135C0.718756 36.3135 0.890948 36.3135 1.05565 36.3135C0.995761 36.2528 0.928381 36.1845 0.868488 36.1238C0.868488 36.3817 0.868488 36.6321 0.868488 36.8901C0.868488 37.5047 0.868488 38.1193 0.868488 38.7338C0.868488 39.4698 0.868488 40.2134 0.868488 40.9494C0.868488 41.5943 0.868488 42.2317 0.868488 42.8766C0.868488 43.089 0.868488 43.3015 0.868488 43.5139C0.868488 43.6126 0.861002 43.7188 0.868488 43.8098C0.868488 43.8174 0.868488 43.8174 0.868488 43.825C0.928381 43.7643 0.995761 43.696 1.05565 43.6353C0.890948 43.6353 0.718756 43.6353 0.55405 43.6353C0.613943 43.696 0.681323 43.7643 0.741216 43.825C0.741216 43.567 0.741216 43.3167 0.741216 43.0587C0.741216 42.4441 0.741216 41.8295 0.741216 41.2149C0.741216 40.479 0.741216 39.7354 0.741216 38.9994C0.741216 38.3545 0.741216 37.7171 0.741216 37.0722C0.741216 36.7611 0.756189 36.45 0.741216 36.1389C0.741216 36.1314 0.741216 36.1314 0.741216 36.1238C0.741216 35.881 0.366884 35.881 0.366884 36.1238C0.366884 36.3817 0.366884 36.6321 0.366884 36.8901C0.366884 37.5047 0.366884 38.1193 0.366884 38.7338C0.366884 39.4698 0.366884 40.2134 0.366884 40.9494C0.366884 41.5943 0.366884 42.2317 0.366884 42.8766C0.366884 43.1877 0.351911 43.4988 0.366884 43.8098C0.366884 43.8174 0.366884 43.8174 0.366884 43.825C0.366884 43.9312 0.449237 44.0147 0.55405 44.0147C0.718756 44.0147 0.890948 44.0147 1.05565 44.0147C1.16047 44.0147 1.24282 43.9312 1.24282 43.825C1.24282 43.567 1.24282 43.3167 1.24282 43.0587C1.24282 42.4441 1.24282 41.8295 1.24282 41.2149C1.24282 40.479 1.24282 39.7354 1.24282 38.9994C1.24282 38.3545 1.24282 37.7171 1.24282 37.0722C1.24282 36.7611 1.25779 36.45 1.24282 36.1389C1.24282 36.1314 1.24282 36.1314 1.24282 36.1238C1.24282 36.0175 1.16047 35.9341 1.05565 35.9341C0.890948 35.9341 0.718756 35.9341 0.55405 35.9341C0.314478 35.9341 0.306991 36.3135 0.55405 36.3135Z" fill="#A1CE57"/>
<path d="M13.5957 36.124V43.8177H13.1016L8.34008 36.9966V43.8177H7.83847V36.124H8.34008L13.1016 42.9451V36.124H13.5957Z" fill="#A1CE57"/>
<path d="M13.4086 36.1238C13.4086 36.3817 13.4086 36.6321 13.4086 36.8901C13.4086 37.5047 13.4086 38.1193 13.4086 38.7338C13.4086 39.4698 13.4086 40.2134 13.4086 40.9494C13.4086 41.5943 13.4086 42.2316 13.4086 42.8766C13.4086 43.089 13.4086 43.3015 13.4086 43.5139C13.4086 43.6125 13.4011 43.7188 13.4086 43.8098C13.4086 43.8174 13.4086 43.8174 13.4086 43.825C13.4685 43.7643 13.5358 43.696 13.5957 43.6353C13.431 43.6353 13.2588 43.6353 13.0941 43.6353C13.1465 43.6657 13.1989 43.696 13.2588 43.7264C13.1016 43.4987 12.9444 43.2711 12.7872 43.0511C12.4054 42.5048 12.031 41.9661 11.6492 41.4198C11.1925 40.7597 10.7358 40.1072 10.2717 39.4471C9.87488 38.878 9.47809 38.3089 9.08129 37.7399C8.88664 37.4667 8.69948 37.186 8.50482 36.9129C8.50482 36.9053 8.49734 36.9053 8.49734 36.8977C8.39252 36.7535 8.14547 36.7915 8.14547 36.9963C8.14547 37.2239 8.14547 37.4516 8.14547 37.6792C8.14547 38.2255 8.14547 38.7642 8.14547 39.3105C8.14547 39.963 8.14547 40.6231 8.14547 41.2756C8.14547 41.8447 8.14547 42.4137 8.14547 42.9828C8.14547 43.1725 8.14547 43.3546 8.14547 43.5443C8.14547 43.6353 8.13798 43.7264 8.14547 43.8098C8.14547 43.8174 8.14547 43.8174 8.14547 43.825C8.20536 43.7643 8.27274 43.696 8.33263 43.6353C8.16793 43.6353 7.99573 43.6353 7.83103 43.6353C7.89092 43.696 7.9583 43.7643 8.01819 43.825C8.01819 43.567 8.01819 43.3166 8.01819 43.0587C8.01819 42.4441 8.01819 41.8295 8.01819 41.2149C8.01819 40.4789 8.01819 39.7354 8.01819 38.9994C8.01819 38.3545 8.01819 37.7171 8.01819 37.0722C8.01819 36.8597 8.01819 36.6473 8.01819 36.4349C8.01819 36.3362 8.02568 36.23 8.01819 36.1389C8.01819 36.1314 8.01819 36.1314 8.01819 36.1238C7.9583 36.1845 7.89092 36.2528 7.83103 36.3135C7.99573 36.3135 8.16793 36.3135 8.33263 36.3135C8.28023 36.2831 8.22782 36.2528 8.16793 36.2224C8.32514 36.45 8.48236 36.6776 8.63958 36.8977C9.0214 37.444 9.39573 37.9827 9.77755 38.529C10.2342 39.1891 10.6909 39.8416 11.1551 40.5017C11.5519 41.0708 11.9487 41.6398 12.3455 42.2089C12.5401 42.482 12.7273 42.7628 12.9219 43.0359C12.9219 43.0435 12.9294 43.0435 12.9294 43.0511C13.0342 43.1952 13.2813 43.1573 13.2813 42.9524C13.2813 42.7248 13.2813 42.4972 13.2813 42.2696C13.2813 41.7233 13.2813 41.1846 13.2813 40.6383C13.2813 39.9858 13.2813 39.3257 13.2813 38.6731C13.2813 38.1041 13.2813 37.535 13.2813 36.966C13.2813 36.7763 13.2813 36.5942 13.2813 36.4045C13.2813 36.3135 13.2888 36.2224 13.2813 36.1389C13.2813 36.1314 13.2813 36.1314 13.2813 36.1238C13.2214 36.1845 13.154 36.2528 13.0941 36.3135C13.2588 36.3135 13.431 36.3135 13.5957 36.3135C13.8353 36.3135 13.8353 35.9341 13.5957 35.9341C13.431 35.9341 13.2588 35.9341 13.0941 35.9341C12.9893 35.9341 12.907 36.0175 12.907 36.1238C12.907 36.3514 12.907 36.579 12.907 36.8066C12.907 37.3529 12.907 37.8916 12.907 38.4379C12.907 39.0904 12.907 39.7506 12.907 40.4031C12.907 40.9721 12.907 41.5412 12.907 42.1102C12.907 42.2999 12.907 42.482 12.907 42.6717C12.907 42.7628 12.8995 42.8538 12.907 42.9373C12.907 42.9449 12.907 42.9449 12.907 42.9524C13.0267 42.9221 13.139 42.8917 13.2588 42.8538C13.0792 42.5958 12.8995 42.3455 12.7198 42.0875C12.3005 41.4881 11.8813 40.8811 11.462 40.2817C10.9754 39.5836 10.4888 38.8856 10.0021 38.1875C9.62033 37.6412 9.23851 37.0874 8.84921 36.5411C8.75188 36.3969 8.64707 36.2528 8.54974 36.1162C8.53477 36.0934 8.51231 36.0631 8.49734 36.0403C8.39252 35.9037 8.17541 35.9417 8.01819 35.9417C7.9583 35.9417 7.89092 35.9417 7.83103 35.9417C7.72621 35.9417 7.64386 36.0251 7.64386 36.1314C7.64386 36.3893 7.64386 36.6397 7.64386 36.8977C7.64386 37.5123 7.64386 38.1268 7.64386 38.7414C7.64386 39.4774 7.64386 40.221 7.64386 40.957C7.64386 41.6019 7.64386 42.2392 7.64386 42.8842C7.64386 43.1952 7.62889 43.5063 7.64386 43.8174C7.64386 43.825 7.64386 43.825 7.64386 43.8326C7.64386 43.9388 7.72621 44.0223 7.83103 44.0223C7.99573 44.0223 8.16793 44.0223 8.33263 44.0223C8.43744 44.0223 8.5198 43.9388 8.5198 43.8326C8.5198 43.605 8.5198 43.3773 8.5198 43.1497C8.5198 42.6034 8.5198 42.0647 8.5198 41.5184C8.5198 40.8659 8.5198 40.2058 8.5198 39.5533C8.5198 38.9842 8.5198 38.4152 8.5198 37.8461C8.5198 37.6564 8.5198 37.4743 8.5198 37.2846C8.5198 37.1936 8.52728 37.1025 8.5198 37.0191C8.5198 37.0115 8.5198 37.0115 8.5198 37.0039C8.40001 37.0343 8.28771 37.0646 8.16793 37.1025C8.3476 37.3605 8.52728 37.6109 8.70696 37.8689C9.12621 38.4683 9.54547 39.0753 9.96472 39.6747C10.4513 40.3727 10.938 41.0708 11.4246 41.7688C11.8064 42.3151 12.1882 42.869 12.5775 43.4153C12.6749 43.5594 12.7797 43.7036 12.877 43.8402C12.892 43.8629 12.9144 43.8933 12.9294 43.916C13.0342 44.0526 13.2513 44.0147 13.4086 44.0147C13.4685 44.0147 13.5358 44.0147 13.5957 44.0147C13.7005 44.0147 13.7829 43.9312 13.7829 43.825C13.7829 43.567 13.7829 43.3166 13.7829 43.0587C13.7829 42.4441 13.7829 41.8295 13.7829 41.2149C13.7829 40.4789 13.7829 39.7354 13.7829 38.9994C13.7829 38.3545 13.7829 37.7171 13.7829 37.0722C13.7829 36.7611 13.7979 36.45 13.7829 36.1389C13.7829 36.1314 13.7829 36.1314 13.7829 36.1238C13.7829 35.8734 13.4086 35.8734 13.4086 36.1238Z" fill="#A1CE57"/>
<path d="M20.8354 41.8748C20.9177 42.9446 21.7787 43.4226 22.6471 43.4226C23.7027 43.4226 24.369 42.8611 24.369 42.0417C24.369 41.0553 23.5081 40.547 22.5348 40.0993C21.3969 39.5378 20.476 39.0826 20.476 37.8458C20.476 36.776 21.3969 36.04 22.5648 36.04C23.6803 36.04 24.4813 36.8822 24.5712 37.899H24.0696C23.9872 37.1402 23.4033 36.518 22.5648 36.518C21.7038 36.518 21.0075 37.0568 21.0075 37.8458C21.0075 38.8626 21.7862 39.1964 22.6771 39.6213C23.8974 40.2131 24.8781 40.8353 24.8781 42.072C24.8781 43.2026 23.9573 43.9613 22.6546 43.9613C21.4867 43.9613 20.4311 43.1722 20.3487 41.9051H20.8503V41.8748H20.8354Z" fill="#A1CE57"/>
<path d="M20.6482 41.875C20.7006 42.4972 21.0075 43.0435 21.5541 43.347C22.0781 43.6353 22.722 43.6808 23.291 43.5367C23.8225 43.4077 24.2942 43.0587 24.4813 42.52C24.6685 41.9661 24.4963 41.3439 24.1295 40.9114C23.7177 40.4334 23.1188 40.1679 22.5648 39.8947C22.0632 39.6443 21.5166 39.4015 21.1198 38.9994C20.768 38.6428 20.6033 38.1268 20.6781 37.6185C20.753 37.095 21.0974 36.6777 21.5616 36.4424C22.0706 36.1845 22.7145 36.1389 23.246 36.3514C23.7477 36.5411 24.137 36.9887 24.2942 37.5047C24.3316 37.6337 24.3616 37.7627 24.369 37.8992C24.4289 37.8385 24.4963 37.7702 24.5562 37.7095C24.3915 37.7095 24.2193 37.7095 24.0546 37.7095C24.1145 37.7702 24.1819 37.8385 24.2418 37.8992C24.1744 37.2998 23.8375 36.7384 23.276 36.488C22.7145 36.23 22.0033 36.2907 21.4867 36.6245C21.2546 36.7763 21.0525 36.9887 20.9327 37.2467C20.8054 37.535 20.7829 37.8461 20.8279 38.1572C20.9177 38.7338 21.337 39.1284 21.8161 39.4091C22.3551 39.7202 22.9391 39.9402 23.4706 40.2741C23.9124 40.5472 24.3541 40.9114 24.5412 41.4046C24.7284 41.8902 24.7059 42.4593 24.4514 42.8993C24.1894 43.3394 23.7252 43.605 23.2236 43.7188C22.6771 43.8402 22.0856 43.7947 21.584 43.5291C21.1049 43.2787 20.7305 42.8538 20.5808 42.3303C20.5434 42.1937 20.5209 42.0495 20.5059 41.913C20.446 41.9737 20.3787 42.042 20.3188 42.1027C20.4835 42.1027 20.6557 42.1027 20.8204 42.1027C20.9252 42.1027 21.0075 42.0192 21.0075 41.913C21.0075 41.9054 21.0075 41.8978 21.0075 41.8826C21.0225 41.6246 20.6482 41.6247 20.6482 41.875C20.6482 41.8826 20.6482 41.8902 20.6482 41.9054C20.7081 41.8447 20.7755 41.7764 20.8354 41.7157C20.6706 41.7157 20.4985 41.7157 20.3338 41.7157C20.2364 41.7157 20.1391 41.7992 20.1466 41.9054C20.1915 42.5124 20.4461 43.089 20.8952 43.4987C21.337 43.8933 21.9059 44.1133 22.4899 44.1513C23.0739 44.1892 23.7102 44.0602 24.1969 43.7188C24.646 43.4077 24.953 42.9373 25.0279 42.391C25.1102 41.7992 24.9605 41.2149 24.6011 40.7445C24.2418 40.2741 23.7177 39.9554 23.2011 39.6823C22.9166 39.5305 22.6321 39.4015 22.3402 39.2574C22.1006 39.136 21.8461 39.007 21.6514 38.8401C21.4642 38.6807 21.3145 38.4986 21.2471 38.2634C21.1648 38.0054 21.1648 37.7247 21.2546 37.4743C21.4343 36.9811 21.9958 36.7232 22.5049 36.7156C23.0514 36.7004 23.553 37.0039 23.7701 37.5199C23.8225 37.6413 23.86 37.7778 23.8749 37.9068C23.8899 38.0055 23.9498 38.0965 24.0621 38.0965C24.2268 38.0965 24.399 38.0965 24.5637 38.0965C24.661 38.0965 24.7583 38.013 24.7509 37.9068C24.6985 37.3074 24.4289 36.7384 23.9648 36.359C23.4706 35.9493 22.8418 35.7975 22.2129 35.881C21.6439 35.9568 21.0674 36.2072 20.7006 36.6701C20.3263 37.1405 20.214 37.7475 20.3338 38.3393C20.5883 39.5609 21.9359 39.9934 22.8942 40.5017C23.3658 40.7445 23.9049 41.0784 24.092 41.5943C24.1819 41.8447 24.1969 42.1178 24.137 42.353C24.0771 42.5731 23.9648 42.7476 23.7851 42.8993C23.3958 43.2332 22.7444 43.3091 22.2503 43.2104C21.7487 43.1118 21.2846 42.8159 21.1049 42.3151C21.0525 42.1785 21.0225 42.0344 21.015 41.8902C21.0075 41.7916 20.9327 41.7005 20.8279 41.7005C20.738 41.6853 20.6332 41.7688 20.6482 41.875Z" fill="#A1CE57"/>
<path d="M34.0718 43.9315C32.3723 43.9315 31.2344 42.9451 31.2344 40.8055V36.124H31.736V40.8055C31.736 42.6947 32.7092 43.4535 34.0718 43.4535C35.4044 43.4535 36.4076 42.6947 36.4076 40.8055V36.124H36.9092V40.8055C36.9092 42.9451 35.7713 43.9315 34.0718 43.9315Z" fill="#A1CE57"/>
<path d="M34.0717 43.7418C33.6675 43.7418 33.2856 43.6887 32.8963 43.5369C32.7541 43.4838 32.5744 43.3852 32.4322 43.279C32.3049 43.1879 32.1626 43.0589 32.0429 42.9148C31.9381 42.7858 31.8332 42.6189 31.7509 42.4519C31.661 42.2698 31.5937 42.0726 31.5413 41.8677C31.4514 41.5111 31.4215 41.1393 31.4215 40.7751C31.4215 40.3426 31.4215 39.9177 31.4215 39.4853C31.4215 38.7948 31.4215 38.0968 31.4215 37.4063C31.4215 37.1256 31.4215 36.8448 31.4215 36.5717C31.4215 36.4275 31.429 36.2834 31.4215 36.1392C31.4215 36.1316 31.4215 36.124 31.4215 36.1164C31.3616 36.1771 31.2942 36.2454 31.2343 36.3061C31.399 36.3061 31.5712 36.3061 31.7359 36.3061C31.676 36.2454 31.6086 36.1771 31.5487 36.1164C31.5487 36.4503 31.5487 36.7766 31.5487 37.1104C31.5487 37.7705 31.5487 38.4306 31.5487 39.0983C31.5487 39.6142 31.5487 40.1226 31.5487 40.6385C31.5487 41.2759 31.6086 41.9284 31.9156 42.5051C32.0953 42.8389 32.3648 43.1196 32.6867 43.3093C33.0161 43.5066 33.3905 43.5976 33.7648 43.6356C34.5209 43.7039 35.337 43.5369 35.8835 42.9679C36.4375 42.3912 36.6022 41.5642 36.6022 40.7827C36.6022 40.3806 36.6022 39.9709 36.6022 39.5687C36.6022 38.901 36.6022 38.2257 36.6022 37.5581C36.6022 37.1028 36.6022 36.6476 36.6022 36.1923C36.6022 36.1696 36.6022 36.1468 36.6022 36.124C36.5423 36.1847 36.475 36.253 36.4151 36.3137C36.5798 36.3137 36.752 36.3137 36.9167 36.3137C36.8568 36.253 36.7894 36.1847 36.7295 36.124C36.7295 36.4731 36.7295 36.8297 36.7295 37.1787C36.7295 37.8691 36.7295 38.5596 36.7295 39.2425C36.7295 39.7356 36.7295 40.2288 36.7295 40.7144C36.7295 41.4125 36.6322 42.1257 36.2578 42.7099C36.0632 43.0134 35.8012 43.2562 35.4792 43.4231C35.1573 43.5976 34.7605 43.6963 34.4012 43.7266C34.2889 43.7342 34.184 43.7418 34.0717 43.7418C33.8322 43.7418 33.8322 44.1212 34.0717 44.1212C34.8953 44.1212 35.7413 43.8784 36.3102 43.2486C36.9092 42.5885 37.0889 41.6704 37.0963 40.7979C37.0963 40.3882 37.0963 39.986 37.0963 39.5763C37.0963 38.8707 37.0963 38.1575 37.0963 37.4518C37.0963 37.0193 37.1113 36.5793 37.0963 36.1392C37.0963 36.1316 37.0963 36.124 37.0963 36.1164C37.0963 36.0102 37.014 35.9268 36.9092 35.9268C36.7445 35.9268 36.5723 35.9268 36.4076 35.9268C36.3028 35.9268 36.2204 36.0102 36.2204 36.1164C36.2204 36.4351 36.2204 36.7538 36.2204 37.0649C36.2204 37.7098 36.2204 38.3623 36.2204 39.0073C36.2204 39.5308 36.2204 40.0467 36.2204 40.5703C36.2204 41.1317 36.1905 41.7084 35.9434 42.2091C35.861 42.3761 35.7712 42.5202 35.6514 42.6416C35.5915 42.7023 35.5316 42.763 35.4643 42.8237C35.4343 42.8465 35.4343 42.8465 35.3969 42.8768C35.3594 42.8996 35.322 42.93 35.2846 42.9527C35.0001 43.1272 34.6557 43.2183 34.3263 43.2486C33.952 43.279 33.6076 43.2562 33.2557 43.1424C32.9487 43.0438 32.6792 42.8768 32.4621 42.6265C32.3573 42.5051 32.26 42.3533 32.1851 42.194C32.1028 42.027 32.0429 41.8222 32.0054 41.6249C31.9455 41.3366 31.9306 41.0407 31.9306 40.7524C31.9306 40.3275 31.9306 39.9026 31.9306 39.4777C31.9306 38.8176 31.9306 38.1575 31.9306 37.4974C31.9306 37.0573 31.9306 36.6248 31.9306 36.1847C31.9306 36.162 31.9306 36.1392 31.9306 36.1164C31.9306 36.0102 31.8482 35.9268 31.7434 35.9268C31.5787 35.9268 31.4065 35.9268 31.2418 35.9268C31.137 35.9268 31.0546 36.0102 31.0546 36.1164C31.0546 36.4806 31.0546 36.8372 31.0546 37.2014C31.0546 37.9071 31.0546 38.6127 31.0546 39.3183C31.0546 39.7963 31.0546 40.2744 31.0546 40.7448C31.0546 41.5187 31.1819 42.3457 31.6386 42.9907C32.1327 43.6887 32.9188 44.0301 33.7498 44.0984C33.8621 44.106 33.9669 44.1136 34.0792 44.1136C34.3188 44.1212 34.3188 43.7418 34.0717 43.7418Z" fill="#A1CE57"/>
<path d="M46.5968 41.0867H44.5904V43.8181H44.0888V36.1245H46.6492C47.8696 36.1245 48.9851 37.0805 48.9851 38.6056C48.9851 39.9334 48.1765 40.8059 47.1733 41.0336L49.0075 43.8257H48.3936L46.5968 41.0867ZM44.5904 40.5783H46.6492C47.5925 40.5783 48.461 39.8423 48.461 38.6056C48.461 37.3688 47.6 36.6329 46.6492 36.6329H44.5904V40.5783Z" fill="#A1CE57"/>
<path d="M46.5969 40.8967C46.0129 40.8967 45.4289 40.8967 44.845 40.8967C44.7626 40.8967 44.6803 40.8967 44.5979 40.8967C44.4931 40.8967 44.4108 40.9802 44.4108 41.0864C44.4108 41.8831 44.4108 42.6798 44.4108 43.4764C44.4108 43.5903 44.4108 43.7041 44.4108 43.8179C44.4707 43.7572 44.538 43.6889 44.5979 43.6282C44.4332 43.6282 44.261 43.6282 44.0963 43.6282C44.1562 43.6889 44.2236 43.7572 44.2835 43.8179C44.2835 43.5599 44.2835 43.3095 44.2835 43.0516C44.2835 42.437 44.2835 41.8224 44.2835 41.2078C44.2835 40.4718 44.2835 39.7283 44.2835 38.9923C44.2835 38.3474 44.2835 37.71 44.2835 37.0651C44.2835 36.8526 44.2835 36.6402 44.2835 36.4277C44.2835 36.3291 44.291 36.2229 44.2835 36.1318C44.2835 36.1242 44.2835 36.1242 44.2835 36.1167C44.2236 36.1774 44.1562 36.2456 44.0963 36.3063C44.9348 36.3063 45.7733 36.3063 46.6043 36.3063C47.1958 36.3063 47.7648 36.5188 48.184 36.9513C48.738 37.5279 48.9177 38.3929 48.7455 39.1668C48.5658 40.009 47.9519 40.6463 47.1359 40.836C47.0236 40.8588 46.9562 41.0181 47.0236 41.1168C47.2257 41.4278 47.4354 41.7389 47.6375 42.0576C47.9669 42.5584 48.2963 43.0591 48.6257 43.5675C48.7006 43.6813 48.7755 43.7951 48.8503 43.9165C48.9027 43.8179 48.9551 43.7268 49.015 43.6282C48.8129 43.6282 48.6108 43.6282 48.4011 43.6282C48.4535 43.6585 48.5059 43.6889 48.5658 43.7192C48.3637 43.4082 48.1541 43.1047 47.9519 42.7936C47.63 42.3004 47.3081 41.8148 46.9787 41.3216C46.9038 41.2078 46.8289 41.094 46.7541 40.9802C46.6193 40.7753 46.2974 40.965 46.4322 41.1699C46.7092 41.5872 46.9862 42.0045 47.2557 42.4218C47.5776 42.9074 47.892 43.4006 48.2215 43.8786C48.2439 43.9165 48.2664 43.9469 48.3038 43.9696C48.3712 44.0076 48.461 43.9924 48.5284 43.9924C48.6856 43.9924 48.8503 43.9924 49.0075 43.9924C49.1423 43.9924 49.2471 43.8255 49.1723 43.7041C48.9701 43.393 48.7605 43.0819 48.5583 42.7632C48.2289 42.2625 47.8995 41.7617 47.5701 41.2533C47.4953 41.1395 47.4204 41.0257 47.3455 40.9043C47.3081 40.9954 47.2707 41.0864 47.2332 41.185C48.0418 40.9954 48.6931 40.4111 48.9926 39.6296C49.307 38.8026 49.2247 37.7783 48.738 37.0347C48.2888 36.3519 47.5327 35.927 46.7166 35.9042C46.3199 35.889 45.9156 35.9042 45.5188 35.9042C45.0396 35.9042 44.568 35.9042 44.0888 35.9042C43.984 35.9042 43.9017 35.9877 43.9017 36.0939C43.9017 36.3519 43.9017 36.6022 43.9017 36.8602C43.9017 37.4748 43.9017 38.0894 43.9017 38.704C43.9017 39.4399 43.9017 40.1835 43.9017 40.9195C43.9017 41.5644 43.9017 42.2018 43.9017 42.8467C43.9017 43.1578 43.8867 43.4689 43.9017 43.7799C43.9017 43.7875 43.9017 43.7875 43.9017 43.7951C43.9017 43.9013 43.984 43.9848 44.0888 43.9848C44.2535 43.9848 44.4257 43.9848 44.5904 43.9848C44.6953 43.9848 44.7776 43.9013 44.7776 43.7951C44.7776 42.9984 44.7776 42.2018 44.7776 41.4051C44.7776 41.2913 44.7776 41.1775 44.7776 41.0637C44.7177 41.1244 44.6503 41.1926 44.5904 41.2533C45.1744 41.2533 45.7584 41.2533 46.3423 41.2533C46.4247 41.2533 46.507 41.2533 46.5894 41.2533C46.8364 41.2761 46.8364 40.8967 46.5969 40.8967Z" fill="#A1CE57"/>
<path d="M44.5905 40.7677C45.1295 40.7677 45.6611 40.7677 46.2001 40.7677C46.4097 40.7677 46.6268 40.7829 46.8365 40.7601C47.2932 40.7146 47.7274 40.5173 48.0568 40.1835C48.768 39.4475 48.8579 38.1425 48.2814 37.3003C48.0194 36.9133 47.6301 36.6326 47.1809 36.5112C46.9263 36.4429 46.6718 36.4429 46.4172 36.4429C45.8258 36.4429 45.2343 36.4429 44.6504 36.4429C44.6354 36.4429 44.6204 36.4429 44.6054 36.4429C44.5006 36.4429 44.4183 36.5263 44.4183 36.6326C44.4183 37.0726 44.4183 37.5203 44.4183 37.9604C44.4183 38.666 44.4183 39.3792 44.4183 40.0848C44.4183 40.2518 44.4183 40.4111 44.4183 40.578C44.4183 40.8208 44.7926 40.8208 44.7926 40.578C44.7926 40.138 44.7926 39.6903 44.7926 39.2502C44.7926 38.5446 44.7926 37.8314 44.7926 37.1257C44.7926 36.9588 44.7926 36.7995 44.7926 36.6326C44.7327 36.6933 44.6653 36.7615 44.6054 36.8222C45.1145 36.8222 45.6311 36.8222 46.1402 36.8222C46.3199 36.8222 46.4996 36.8222 46.6792 36.8222C47.0686 36.8222 47.4579 36.9664 47.7424 37.2396C48.4012 37.8617 48.4686 39.0302 47.937 39.7586C47.6974 40.0773 47.353 40.2897 46.9637 40.3656C46.7766 40.4035 46.552 40.3959 46.3423 40.3959C45.7734 40.3959 45.2119 40.3959 44.6429 40.3959C44.6279 40.3959 44.6129 40.3959 44.598 40.3959C44.3509 40.3883 44.3509 40.7677 44.5905 40.7677Z" fill="#A1CE57"/>
<path d="M59.9455 41.7313H56.4717L55.723 43.8482H55.1915L57.9466 36.147H58.5006L61.2557 43.8406H60.7241L59.9455 41.7313ZM59.7808 41.223L58.2236 36.8223L56.6664 41.223H59.7808Z" fill="#A1CE57"/>
<path d="M59.9455 41.5414C59.5562 41.5414 59.1594 41.5414 58.7701 41.5414C58.1487 41.5414 57.5273 41.5414 56.9059 41.5414C56.7637 41.5414 56.6139 41.5414 56.4717 41.5414C56.3819 41.5414 56.322 41.6021 56.292 41.6779C56.0749 42.2925 55.8503 42.9147 55.6332 43.5293C55.6032 43.6127 55.5733 43.7038 55.5434 43.7872C55.6032 43.7417 55.6631 43.6962 55.723 43.6507C55.5434 43.6507 55.3712 43.6507 55.1915 43.6507C55.2514 43.7341 55.3113 43.81 55.3712 43.8935C55.461 43.6355 55.5508 43.3851 55.6482 43.1271C55.8653 42.5126 56.0899 41.898 56.307 41.291C56.569 40.5474 56.8385 39.8114 57.1006 39.0679C57.3327 38.4305 57.5573 37.7856 57.7894 37.1483C57.8642 36.9358 57.9391 36.7309 58.014 36.5185C58.0514 36.4199 58.0963 36.3212 58.1188 36.215C58.1188 36.2074 58.1188 36.2074 58.1263 36.1998C58.0664 36.2454 58.0065 36.2909 57.9466 36.3364C58.1337 36.3364 58.3209 36.3364 58.5006 36.3364C58.4407 36.2909 58.3808 36.2454 58.3209 36.1998C58.4107 36.4578 58.5006 36.7082 58.5979 36.9662C58.815 37.5807 59.0396 38.1953 59.2567 38.8023C59.5188 39.5459 59.7883 40.2819 60.0503 41.0254C60.2824 41.6628 60.507 42.3077 60.7391 42.945C60.814 43.1575 60.8888 43.3623 60.9637 43.5748C61.0011 43.6734 61.0236 43.7797 61.0685 43.8783C61.0685 43.8859 61.0685 43.8859 61.076 43.8935C61.1359 43.81 61.1958 43.7341 61.2557 43.6507C61.076 43.6507 60.9038 43.6507 60.7241 43.6507C60.784 43.6962 60.8439 43.7417 60.9038 43.7872C60.6792 43.1727 60.4471 42.5505 60.2225 41.9359C60.1926 41.8449 60.1551 41.7614 60.1252 41.6704C60.0878 41.5717 59.9979 41.511 59.8931 41.5414C59.8033 41.5641 59.7284 41.6779 59.7658 41.7766C59.9904 42.3912 60.2225 43.0133 60.4471 43.6279C60.4771 43.719 60.5145 43.8024 60.5445 43.8935C60.5744 43.9693 60.6343 44.03 60.7241 44.03C60.9038 44.03 61.076 44.03 61.2557 44.03C61.368 44.03 61.4803 43.9086 61.4354 43.7872C61.3455 43.5293 61.2557 43.2789 61.1584 43.0209C60.9412 42.4063 60.7166 41.7918 60.4995 41.1848C60.2375 40.4412 59.968 39.7052 59.7059 38.9616C59.4739 38.3243 59.2493 37.6794 59.0172 37.042C58.9049 36.7309 58.8001 36.4199 58.6803 36.1088C58.6803 36.1012 58.6803 36.1012 58.6728 36.0936C58.6428 36.0177 58.5829 35.957 58.4931 35.957C58.3059 35.957 58.1188 35.957 57.9391 35.957C57.8492 35.957 57.7894 36.0177 57.7594 36.0936C57.6696 36.3516 57.5797 36.602 57.4824 36.8599C57.2653 37.4745 57.0407 38.0891 56.8236 38.6961C56.5615 39.4397 56.292 40.1756 56.03 40.9192C55.7979 41.5565 55.5733 42.2015 55.3412 42.8388C55.2663 43.0513 55.1915 43.2561 55.1166 43.4686C55.0792 43.5672 55.0417 43.6658 55.0118 43.7721C55.0118 43.7797 55.0118 43.7797 55.0043 43.7872C54.9594 43.9086 55.0717 44.03 55.184 44.03C55.3637 44.03 55.5359 44.03 55.7155 44.03C55.8054 44.03 55.8653 43.9693 55.8952 43.8935C56.1123 43.2789 56.3369 42.6567 56.5541 42.0421C56.584 41.9587 56.6139 41.8676 56.6439 41.7842C56.584 41.8297 56.5241 41.8752 56.4642 41.9207C56.8535 41.9207 57.2503 41.9207 57.6396 41.9207C58.261 41.9207 58.8824 41.9207 59.5038 41.9207C59.646 41.9207 59.7958 41.9207 59.938 41.9207C60.1851 41.9207 60.1851 41.5414 59.9455 41.5414Z" fill="#A1CE57"/>
<path d="M59.9605 41.1772C59.7883 40.684 59.6086 40.1832 59.4364 39.69C59.1594 38.9009 58.8749 38.1118 58.5979 37.3227C58.5306 37.1406 58.4707 36.9661 58.4033 36.784C58.3434 36.6019 58.1038 36.6019 58.0439 36.784C57.8717 37.2772 57.6921 37.778 57.5199 38.2712C57.2429 39.0603 56.9584 39.8494 56.6814 40.6384C56.614 40.8205 56.5541 40.9951 56.4867 41.1772C56.4418 41.2986 56.5541 41.42 56.6664 41.42C57.5798 41.42 58.4856 41.42 59.399 41.42C59.5263 41.42 59.6536 41.42 59.7883 41.42C60.0279 41.42 60.0279 41.0406 59.7883 41.0406C58.8749 41.0406 57.9691 41.0406 57.0557 41.0406C56.9284 41.0406 56.8011 41.0406 56.6664 41.0406C56.7263 41.124 56.7862 41.1999 56.8461 41.2834C57.0183 40.7902 57.1979 40.2894 57.3701 39.7962C57.6471 39.0072 57.9316 38.2181 58.2086 37.429C58.276 37.2469 58.3359 37.0724 58.4033 36.8903C58.2835 36.8903 58.1637 36.8903 58.0439 36.8903C58.2161 37.3834 58.3958 37.8842 58.568 38.3774C58.845 39.1665 59.1295 39.9556 59.4065 40.7447C59.4739 40.9268 59.5338 41.1013 59.6011 41.2834C59.6386 41.382 59.7284 41.4427 59.8332 41.4124C59.9231 41.382 59.9979 41.2682 59.9605 41.1772Z" fill="#A1CE57"/>
<path d="M73.4364 36.124V43.8177H72.9348L68.1808 36.9966V43.8177H67.6792V36.124H68.1808L72.9348 42.9451V36.124H73.4364Z" fill="#A1CE57"/>
<path d="M73.2492 36.1238C73.2492 36.3817 73.2492 36.6321 73.2492 36.8901C73.2492 37.5047 73.2492 38.1193 73.2492 38.7338C73.2492 39.4698 73.2492 40.2134 73.2492 40.9494C73.2492 41.5943 73.2492 42.2316 73.2492 42.8766C73.2492 43.089 73.2492 43.3015 73.2492 43.5139C73.2492 43.6125 73.2418 43.7188 73.2492 43.8098C73.2492 43.8174 73.2492 43.8174 73.2492 43.825C73.3091 43.7643 73.3765 43.696 73.4364 43.6353C73.2717 43.6353 73.0995 43.6353 72.9348 43.6353C72.9872 43.6657 73.0396 43.696 73.0995 43.7264C72.9423 43.4987 72.7851 43.2711 72.6278 43.0511C72.246 42.5048 71.8717 41.9661 71.4899 41.4198C71.0332 40.7597 70.5765 40.1072 70.1123 39.4471C69.7155 38.878 69.3188 38.3089 68.922 37.7399C68.7273 37.4667 68.5401 37.186 68.3455 36.9129C68.3455 36.9053 68.338 36.9053 68.338 36.8977C68.2332 36.7535 67.9861 36.7915 67.9861 36.9963C67.9861 37.2239 67.9861 37.4516 67.9861 37.6792C67.9861 38.2255 67.9861 38.7642 67.9861 39.3105C67.9861 39.963 67.9861 40.6231 67.9861 41.2756C67.9861 41.8447 67.9861 42.4137 67.9861 42.9828C67.9861 43.1725 67.9861 43.3546 67.9861 43.5443C67.9861 43.6353 67.9786 43.7264 67.9861 43.8098C67.9861 43.8174 67.9861 43.8174 67.9861 43.825C68.046 43.7643 68.1134 43.696 68.1733 43.6353C68.0086 43.6353 67.8364 43.6353 67.6717 43.6353C67.7316 43.696 67.799 43.7643 67.8589 43.825C67.8589 43.567 67.8589 43.3166 67.8589 43.0587C67.8589 42.4441 67.8589 41.8295 67.8589 41.2149C67.8589 40.4789 67.8589 39.7354 67.8589 38.9994C67.8589 38.3545 67.8589 37.7171 67.8589 37.0722C67.8589 36.8597 67.8589 36.6473 67.8589 36.4349C67.8589 36.3362 67.8663 36.23 67.8589 36.1389C67.8589 36.1314 67.8589 36.1314 67.8589 36.1238C67.799 36.1845 67.7316 36.2528 67.6717 36.3135C67.8364 36.3135 68.0086 36.3135 68.1733 36.3135C68.1209 36.2831 68.0685 36.2528 68.0086 36.2224C68.1658 36.45 68.323 36.6776 68.4803 36.8977C68.8621 37.444 69.2364 37.9827 69.6182 38.529C70.0749 39.1891 70.5316 39.8416 70.9958 40.5017C71.3926 41.0708 71.7893 41.6398 72.1861 42.2089C72.3808 42.482 72.568 42.7628 72.7626 43.0359C72.7626 43.0435 72.7701 43.0435 72.7701 43.0511C72.8749 43.1952 73.122 43.1573 73.122 42.9524C73.122 42.7248 73.122 42.4972 73.122 42.2696C73.122 41.7233 73.122 41.1846 73.122 40.6383C73.122 39.9858 73.122 39.3257 73.122 38.6731C73.122 38.1041 73.122 37.535 73.122 36.966C73.122 36.7763 73.122 36.5942 73.122 36.4045C73.122 36.3135 73.1295 36.2224 73.122 36.1389C73.122 36.1314 73.122 36.1314 73.122 36.1238C73.0621 36.1845 72.9947 36.2528 72.9348 36.3135C73.0995 36.3135 73.2717 36.3135 73.4364 36.3135C73.676 36.3135 73.676 35.9341 73.4364 35.9341C73.2717 35.9341 73.0995 35.9341 72.9348 35.9341C72.83 35.9341 72.7476 36.0175 72.7476 36.1238C72.7476 36.3514 72.7476 36.579 72.7476 36.8066C72.7476 37.3529 72.7476 37.8916 72.7476 38.4379C72.7476 39.0904 72.7476 39.7506 72.7476 40.4031C72.7476 40.9721 72.7476 41.5412 72.7476 42.1102C72.7476 42.2999 72.7476 42.482 72.7476 42.6717C72.7476 42.7628 72.7401 42.8538 72.7476 42.9373C72.7476 42.9449 72.7476 42.9449 72.7476 42.9524C72.8674 42.9221 72.9797 42.8917 73.0995 42.8538C72.9198 42.5958 72.7401 42.3455 72.5605 42.0875C72.1412 41.4881 71.722 40.8811 71.3027 40.2817C70.8161 39.5836 70.3295 38.8856 69.8428 38.1875C69.461 37.6412 69.0792 37.0874 68.6899 36.5411C68.5925 36.3969 68.4877 36.2528 68.3904 36.1162C68.3754 36.0934 68.353 36.0631 68.338 36.0403C68.2332 35.9037 68.0161 35.9417 67.8589 35.9417C67.799 35.9417 67.7316 35.9417 67.6717 35.9417C67.5669 35.9417 67.4845 36.0251 67.4845 36.1314C67.4845 36.3893 67.4845 36.6397 67.4845 36.8977C67.4845 37.5123 67.4845 38.1268 67.4845 38.7414C67.4845 39.4774 67.4845 40.221 67.4845 40.957C67.4845 41.6019 67.4845 42.2392 67.4845 42.8842C67.4845 43.1952 67.4696 43.5063 67.4845 43.8174C67.4845 43.825 67.4845 43.825 67.4845 43.8326C67.4845 43.9388 67.5669 44.0223 67.6717 44.0223C67.8364 44.0223 68.0086 44.0223 68.1733 44.0223C68.2781 44.0223 68.3605 43.9388 68.3605 43.8326C68.3605 43.605 68.3605 43.3773 68.3605 43.1497C68.3605 42.6034 68.3605 42.0647 68.3605 41.5184C68.3605 40.8659 68.3605 40.2058 68.3605 39.5533C68.3605 38.9842 68.3605 38.4152 68.3605 37.8461C68.3605 37.6564 68.3605 37.4743 68.3605 37.2846C68.3605 37.1936 68.3679 37.1025 68.3605 37.0191C68.3605 37.0115 68.3605 37.0115 68.3605 37.0039C68.2407 37.0343 68.1284 37.0646 68.0086 37.1025C68.1883 37.3605 68.3679 37.6109 68.5476 37.8689C68.9669 38.4683 69.3861 39.0753 69.8054 39.6747C70.292 40.3727 70.7786 41.0708 71.2653 41.7688C71.6471 42.3151 72.0289 42.869 72.4182 43.4153C72.5155 43.5594 72.6204 43.7036 72.7177 43.8402C72.7327 43.8629 72.7551 43.8933 72.7701 43.916C72.8749 44.0526 73.092 44.0147 73.2492 44.0147C73.3091 44.0147 73.3765 44.0147 73.4364 44.0147C73.5412 44.0147 73.6236 43.9312 73.6236 43.825C73.6236 43.567 73.6236 43.3166 73.6236 43.0587C73.6236 42.4441 73.6236 41.8295 73.6236 41.2149C73.6236 40.4789 73.6236 39.7354 73.6236 38.9994C73.6236 38.3545 73.6236 37.7171 73.6236 37.0722C73.6236 36.7611 73.6385 36.45 73.6236 36.1389C73.6236 36.1314 73.6236 36.1314 73.6236 36.1238C73.6236 35.8734 73.2492 35.8734 73.2492 36.1238Z" fill="#A1CE57"/>
<path d="M83.9027 36.5186C82.0684 36.5186 80.5936 38.0665 80.5936 39.9861C80.5936 41.9057 82.0984 43.4535 83.9027 43.4535C84.8759 43.4535 85.6021 43.0893 86.1037 42.6113V43.1728C85.5722 43.6508 84.8535 43.9619 83.8503 43.9619C81.7091 43.9619 80.0695 42.1864 80.0695 39.9861C80.0695 37.8161 81.7091 36.0103 83.8503 36.0103C84.8235 36.0103 85.5722 36.3213 86.1037 36.7993V37.3608C85.5946 36.8828 84.8984 36.5186 83.9027 36.5186Z" fill="#A1CE57"/>
<path d="M83.9027 36.3288C83.0268 36.3288 82.1883 36.6703 81.5444 37.2773C80.9006 37.8919 80.5038 38.7341 80.4214 39.6218C80.3316 40.5247 80.5787 41.4504 81.1102 42.1788C81.6268 42.8844 82.3904 43.4079 83.2439 43.5748C84.1872 43.7569 85.2054 43.5521 85.969 42.9603C86.0589 42.892 86.1412 42.8161 86.2236 42.7402C86.1188 42.6947 86.014 42.6492 85.9017 42.6036C85.9017 42.7933 85.9017 42.983 85.9017 43.1651C85.9166 43.1196 85.9391 43.0741 85.9541 43.0285C85.1305 43.7721 83.8878 43.9239 82.8546 43.6279C81.8888 43.3472 81.0877 42.6492 80.6385 41.7463C80.1669 40.7978 80.1145 39.6521 80.4589 38.6506C80.7958 37.687 81.522 36.8676 82.4578 36.473C83.4685 36.0405 84.7412 36.086 85.6621 36.7082C85.7669 36.7765 85.8567 36.8524 85.9466 36.9282C85.9316 36.8827 85.9092 36.8372 85.8942 36.7917C85.8942 36.9814 85.8942 37.171 85.8942 37.3531C85.999 37.3076 86.1038 37.2621 86.2161 37.2166C85.5872 36.6172 84.7712 36.3288 83.9027 36.3288C83.6632 36.3288 83.6632 36.7082 83.9027 36.7082C84.6739 36.7082 85.4001 36.9586 85.969 37.4973C86.0888 37.6111 86.291 37.5277 86.291 37.3607C86.291 37.1862 86.291 37.0117 86.291 36.8372C86.291 36.7917 86.291 36.7461 86.2685 36.7082C86.2236 36.6323 86.1188 36.5641 86.0514 36.5109C85.9241 36.4123 85.7894 36.3213 85.6471 36.2454C84.9958 35.8964 84.2247 35.7674 83.491 35.8432C82.1958 35.9722 81.0428 36.7462 80.414 37.8994C79.7701 39.0831 79.7177 40.5323 80.2567 41.769C80.7658 42.9375 81.8214 43.8252 83.0567 44.0756C83.7605 44.2198 84.5316 44.1894 85.2129 43.939C85.5273 43.8252 85.8193 43.6659 86.0813 43.4534C86.1412 43.4079 86.2161 43.3548 86.261 43.2941C86.2985 43.2486 86.2985 43.1955 86.2985 43.1423C86.2985 43.0361 86.2985 42.9375 86.2985 42.8313C86.2985 42.7554 86.2985 42.6871 86.2985 42.6112C86.2985 42.4443 86.0963 42.3684 85.9765 42.4747C85.3327 43.0817 84.4493 43.3396 83.5808 43.2486C82.8097 43.1651 82.0984 42.763 81.5968 42.1788C81.0728 41.5718 80.7883 40.7675 80.7883 39.9632C80.7958 39.159 81.0877 38.3623 81.6193 37.7629C82.2033 37.1028 83.0343 36.7158 83.9102 36.7158C84.1423 36.7082 84.1423 36.3288 83.9027 36.3288Z" fill="#A1CE57"/>
<path d="M93.8599 36.625V39.5613H96.4428V40.0697H93.8599V43.3398H97.2214V43.8482H93.3283V36.147H97.2214V36.6553H93.8599V36.625Z" fill="#A1CE57"/>
<path d="M93.6728 36.6247C93.6728 37.4821 93.6728 38.3395 93.6728 39.1969C93.6728 39.3183 93.6728 39.4397 93.6728 39.5611C93.6728 39.6673 93.7551 39.7508 93.8599 39.7508C94.6161 39.7508 95.3722 39.7508 96.1209 39.7508C96.2257 39.7508 96.338 39.7508 96.4428 39.7508C96.3829 39.6901 96.3155 39.6218 96.2556 39.5611C96.2556 39.728 96.2556 39.9025 96.2556 40.0694C96.3155 40.0087 96.3829 39.9404 96.4428 39.8797C95.6867 39.8797 94.9305 39.8797 94.1819 39.8797C94.077 39.8797 93.9647 39.8797 93.8599 39.8797C93.7551 39.8797 93.6728 39.9632 93.6728 40.0694C93.6728 40.4412 93.6728 40.8054 93.6728 41.1772C93.6728 41.7614 93.6728 42.3532 93.6728 42.9375C93.6728 43.0741 93.6728 43.2106 93.6728 43.3396C93.6728 43.4458 93.7551 43.5293 93.8599 43.5293C94.2417 43.5293 94.6236 43.5293 94.9979 43.5293C95.5968 43.5293 96.2032 43.5293 96.8022 43.5293C96.9444 43.5293 97.0792 43.5293 97.2214 43.5293C97.1615 43.4686 97.0942 43.4003 97.0343 43.3396C97.0343 43.5065 97.0343 43.681 97.0343 43.848C97.0942 43.7873 97.1615 43.719 97.2214 43.6583C96.7872 43.6583 96.3455 43.6583 95.9113 43.6583C95.215 43.6583 94.5113 43.6583 93.815 43.6583C93.6503 43.6583 93.4931 43.6583 93.3284 43.6583C93.3883 43.719 93.4556 43.7873 93.5155 43.848C93.5155 43.59 93.5155 43.3396 93.5155 43.0816C93.5155 42.4671 93.5155 41.8525 93.5155 41.2379C93.5155 40.5019 93.5155 39.7583 93.5155 39.0224C93.5155 38.3774 93.5155 37.7401 93.5155 37.0951C93.5155 36.8827 93.5155 36.6703 93.5155 36.4578C93.5155 36.3592 93.523 36.2529 93.5155 36.1619C93.5155 36.1543 93.5155 36.1543 93.5155 36.1467C93.4556 36.2074 93.3883 36.2757 93.3284 36.3364C93.7626 36.3364 94.2043 36.3364 94.6385 36.3364C95.3348 36.3364 96.0385 36.3364 96.7348 36.3364C96.8995 36.3364 97.0567 36.3364 97.2214 36.3364C97.1615 36.2757 97.0942 36.2074 97.0343 36.1467C97.0343 36.3136 97.0343 36.4882 97.0343 36.6551C97.0942 36.5944 97.1615 36.5261 97.2214 36.4654C96.8396 36.4654 96.4578 36.4654 96.0835 36.4654C95.4845 36.4654 94.8781 36.4654 94.2792 36.4654C94.1369 36.4654 94.0022 36.4654 93.8599 36.4654C93.9198 36.5261 93.9872 36.5944 94.0471 36.6551C94.0471 36.6475 94.0471 36.6399 94.0471 36.6247C94.0471 36.3819 93.6728 36.3819 93.6728 36.6247C93.6728 36.6323 93.6728 36.6399 93.6728 36.6551C93.6728 36.7613 93.7551 36.8448 93.8599 36.8448C94.2417 36.8448 94.6236 36.8448 94.9979 36.8448C95.5968 36.8448 96.2032 36.8448 96.8022 36.8448C96.9444 36.8448 97.0792 36.8448 97.2214 36.8448C97.3262 36.8448 97.4086 36.7613 97.4086 36.6551C97.4086 36.4882 97.4086 36.3136 97.4086 36.1467C97.4086 36.0405 97.3262 35.957 97.2214 35.957C96.7872 35.957 96.3455 35.957 95.9113 35.957C95.215 35.957 94.5113 35.957 93.815 35.957C93.6503 35.957 93.4931 35.957 93.3284 35.957C93.2236 35.957 93.1412 36.0405 93.1412 36.1467C93.1412 36.4047 93.1412 36.6551 93.1412 36.913C93.1412 37.5276 93.1412 38.1422 93.1412 38.7568C93.1412 39.4928 93.1412 40.2363 93.1412 40.9723C93.1412 41.6173 93.1412 42.2546 93.1412 42.8995C93.1412 43.2106 93.1262 43.5217 93.1412 43.8328C93.1412 43.8404 93.1412 43.8404 93.1412 43.848C93.1412 43.9542 93.2236 44.0377 93.3284 44.0377C93.7626 44.0377 94.2043 44.0377 94.6385 44.0377C95.3348 44.0377 96.0385 44.0377 96.7348 44.0377C96.8995 44.0377 97.0567 44.0377 97.2214 44.0377C97.3262 44.0377 97.4086 43.9542 97.4086 43.848C97.4086 43.681 97.4086 43.5065 97.4086 43.3396C97.4086 43.2334 97.3262 43.1499 97.2214 43.1499C96.8396 43.1499 96.4578 43.1499 96.0835 43.1499C95.4845 43.1499 94.8781 43.1499 94.2792 43.1499C94.1369 43.1499 94.0022 43.1499 93.8599 43.1499C93.9198 43.2106 93.9872 43.2789 94.0471 43.3396C94.0471 42.9678 94.0471 42.6036 94.0471 42.2318C94.0471 41.6476 94.0471 41.0558 94.0471 40.4716C94.0471 40.335 94.0471 40.1984 94.0471 40.0694C93.9872 40.1301 93.9198 40.1984 93.8599 40.2591C94.6161 40.2591 95.3722 40.2591 96.1209 40.2591C96.2257 40.2591 96.338 40.2591 96.4428 40.2591C96.5476 40.2591 96.63 40.1756 96.63 40.0694C96.63 39.9025 96.63 39.728 96.63 39.5611C96.63 39.4548 96.5476 39.3714 96.4428 39.3714C95.6867 39.3714 94.9305 39.3714 94.1819 39.3714C94.077 39.3714 93.9647 39.3714 93.8599 39.3714C93.9198 39.4321 93.9872 39.5004 94.0471 39.5611C94.0471 38.7037 94.0471 37.8463 94.0471 36.9889C94.0471 36.8675 94.0471 36.7461 94.0471 36.6247C94.0471 36.3819 93.6728 36.3819 93.6728 36.6247Z" fill="#A1CE57"/>
</g>
<defs>
<clipPath id="clip0">
<rect width="98" height="44.3333" fill="white"/>
</clipPath>
</defs>
</svg>

