<svg xmlns="http://www.w3.org/2000/svg" style="position:absolute; width: 0; height: 0"><symbol viewBox="0 0 192 156" id="icon-chat-bubble"><g fill="none" fill-rule="evenodd"><path d="M155.296 109.336c12.89-9.946 20.76-23.093 20.76-37.535 0-30.995-35.957-56.064-80.26-56.064-44.234-.068-80.192 25.07-80.192 55.997 0 30.995 35.958 56.064 80.26 56.064 11.534 0 22.525-1.77 32.43-4.836l32.023 16.827c2.103 1.09 3.324.136 2.713-2.18l-7.734-28.27zM63.774 85.562H44.777V64.444h18.997v21.118zm40.028 0h-21.71V64.444h21.71v21.118zm37.315 0H122.8V64.444h18.317v21.118z" fill="#371C57"></path><path d="M95.864 8.856c22.796 0 44.37 6.267 60.653 17.644 17.03 11.92 26.392 27.998 26.392 45.233 0 14.714-6.99 28.815-19.88 40.056l6.58 24.114c1.087 4.087-.338 6.88-1.288 8.106-1.492 1.976-3.867 3.134-6.445 3.134-1.56 0-3.12-.41-4.68-1.226l-29.58-15.6c-10.178 2.86-20.83 4.292-31.753 4.292-22.795 0-44.302-6.268-60.653-17.644-17.028-11.853-26.39-27.93-26.39-45.233 0-17.303 9.362-33.38 26.39-45.233C51.495 15.123 73.07 8.856 95.865 8.856zm0-8.856C71.237 0 47.966 6.812 30.19 19.21 10.72 32.835 0 51.5 0 71.733c0 20.232 10.72 38.898 30.19 52.522 17.776 12.398 41.047 19.21 65.674 19.21 10.516 0 20.76-1.226 30.666-3.746l26.527 13.964c2.85 1.5 5.767 2.248 8.82 2.248 5.36 0 10.245-2.384 13.433-6.608 3.325-4.36 4.342-10.15 2.782-15.804l-5.156-18.938c12.144-12.262 18.793-27.317 18.793-42.85 0-20.232-10.72-38.897-30.192-52.522C143.763 6.812 120.424 0 95.864 0z" fill="#CDB1D5"></path></g></symbol><symbol viewBox="0 0 32 32" id="icon-check"><path d="M29.84 10.107q0 .714-.5 1.214L13.98 26.68q-.5.5-1.214.5t-1.214-.5L2.66 17.785q-.5-.5-.5-1.214t.5-1.213l2.43-2.43q.5-.5 1.214-.5t1.214.5l5.25 5.27L24.482 6.463q.5-.5 1.214-.5t1.214.5l2.43 2.43q.5.5.5 1.213z"></path></symbol><symbol viewBox="0 0 22 32" id="icon-chevron-right"><path d="M19.768 15.661l-13.25 13.25q-.339.339-.804.339t-.804-.339l-2.964-2.964q-.339-.339-.339-.804t.339-.804l9.482-9.482-9.482-9.482q-.339-.339-.339-.804t.339-.804L4.91.803q.339-.339.804-.339t.804.339l13.25 13.25q.339.339.339.804t-.339.804z"></path></symbol><symbol viewBox="0 0 180.9 176.5" id="icon-circle-award"><ellipse transform="rotate(-45 91.432 88.26)" fill="#0B466A" cx="91.4" cy="88.3" rx="81.9" ry="81.9"></ellipse><path opacity=".23" fill="#010101" d="M149.4 30.3c32 32 32 83.8 0 115.8s-83.9 32-115.8 0"></path><ellipse transform="rotate(-45 91.432 88.26)" fill="#0B466A" cx="91.4" cy="88.3" rx="81.9" ry="81.9"></ellipse><path opacity=".23" fill="#010101" d="M149.4 30.3c32 32 32 83.8 0 115.8s-83.9 32-115.8 0"></path><g fill="#FFF"><path d="M125.8 80.4c0-3.3-2.5-6-5.7-6.2 2.1-1 3.6-3.1 3.6-5.7 0-3.4-2.8-6.2-6.2-6.2-.6 0-1.1.1-1.6.2 1.2-1.1 1.9-2.7 1.9-4.5 0-3.4-2.8-6.2-6.2-6.2-1.3 0-2.6.4-3.6 1.1.2-.6.3-1.2.3-1.8 0-3.4-2.8-6.2-6.2-6.2-2.4 0-4.5 1.4-5.5 3.3-.7-2.7-3.1-4.7-6-4.7-3.4 0-6.2 2.7-6.2 6.1-1.1-1.6-3-2.7-5.1-2.7-3.4 0-6.2 2.8-6.2 6.2 0 .3 0 .7.1 1-.9-.6-2-.9-3.2-.9-3.4 0-6.2 2.8-6.2 6.2 0 1.5.5 2.9 1.5 4-.3 0-.6-.1-.9-.1-3.4 0-6.2 2.8-6.2 6.2 0 2.5 1.5 4.6 3.6 5.6-2.5.8-4.3 3.2-4.3 5.9 0 3.3 2.5 5.9 5.7 6.2-1.6 1.1-2.6 3-2.6 5.1 0 3.4 2.8 6.2 6.2 6.2.6 0 1.2-.1 1.7-.3-.3.7-.5 1.5-.5 2.3 0 3.4 2.8 6.2 6.2 6.2 2 0 3.7-.9 4.9-2.4v.6c0 3.4 2.8 6.2 6.2 6.2 2.6 0 4.8-1.5 5.7-3.7.7 2.7 3.1 4.7 6 4.7 3.4 0 6.2-2.8 6.2-6.2 0-.4 0-.8-.1-1.2 1.1 1.4 2.9 2.3 4.8 2.3 3.4 0 6.2-2.8 6.2-6.2 0-1.4-.4-2.6-1.2-3.6.8.4 1.7.6 2.7.6 3.4 0 6.2-2.8 6.2-6.2 0-2.1-1.1-4-2.7-5.1h.6c3.3.1 6.1-2.7 6.1-6.1zM91.4 95.7c-9.9 0-17.8-8-17.8-17.8 0-9.9 8-17.8 17.8-17.8 9.9 0 17.8 8 17.8 17.8.1 9.8-7.9 17.8-17.8 17.8z"></path><path d="M85 114.8c-3.5 0-6.4-2.3-7.4-5.4-1.1.6-2.4.9-3.6.9-3.3 0-6.1-2-7.2-4.9l-3.9 19.7 13.7-5.4 10.7 7.9 2.9-14.7c-1.5 1.2-3.3 1.9-5.2 1.9zm22.7-4.2c-1.2 0-2.3-.3-3.4-.8-.9 3.4-3.9 5.9-7.6 5.9-2.4 0-4.6-1.1-6.1-2.9l5 24.3 11-8 13.4 5.4-5.7-27.7c-1.3 2.3-3.8 3.8-6.6 3.8z"></path></g></symbol><symbol viewBox="0 0 163.9 163.8" id="icon-circle-chat"><ellipse class="st0" fill="#0B466A" transform="rotate(-45 81.9 81.9)" cx="81.9" cy="81.9" rx="81.9" ry="81.9"></ellipse><path opacity=".23" fill="#010101" d="M139.9 24c32 32 32 83.8 0 115.8s-83.8 32-115.8 0"></path><g fill="#FFF"><path d="M63.1 95.9v-3.5c0-7.5-.1-14.9.1-22.4.1-2.6-.5-3.6-3.1-3.5-4.3.2-8.7 0-13.1.1-6.1.1-9.6 3.9-9.6 10.4v25.6c0 7.9 3.1 11.5 10.5 11.5 2.5 0 3.1.9 3 3.4-.2 3.3 0 6.6 0 10 4.3-3.7 7.8-7.7 11.6-11.4 1-1 2.6-1.7 4-1.8 6.3-.2 12.5-.1 18.8-.1 4.3 0 8-1.5 9.3-6 1-3.7.8-7.9 1.1-12.1H63.1v-.2z"></path><path d="M126.5 82.4c-1.9 5.8-5.8 8.4-11.6 7.8-.4 0-.7 0-1.1.1-.2 0-.3.1-.9.4v13.6c-1.4-1.5-2.3-2.3-3.1-3.1-3.4-3.6-6.3-8.6-10.4-10.4-4.2-1.8-9.6-.6-14.5-.6-4.5 0-9.1-.1-13.6 0-2.2.1-2.8-.8-2.8-3 .1-11.2 0-22.5 0-33.7 0-7.1 3.4-10.7 10.1-10.7 6.6-.1 13.3 0 19.9 0 5.3 0 10.5.2 15.8-.1 5.8-.3 10.1 1.6 12.2 7.8v31.9z"></path><path d="M63.1 95.9h32.4c-.3 4.2-.1 8.3-1.1 12.1-1.2 4.5-5 6.1-9.3 6-6.3 0-12.5-.1-18.8.1-1.4 0-3 .8-4 1.8-3.8 3.7-7.3 7.7-11.6 11.4 0-3.3-.1-6.7 0-10 .1-2.5-.5-3.4-3-3.4-7.4 0-10.5-3.6-10.5-11.5V76.8c0-6.5 3.5-10.3 9.6-10.4 4.4 0 8.7.1 13.1-.1 2.6-.1 3.2.9 3.1 3.5-.1 7.5-.1 14.9-.1 22.4v3.7h.2z"></path></g></symbol><symbol viewBox="0 0 180.9 176.5" id="icon-circle-check"><style><![CDATA[.st0{fill:#0b466a}.st1{opacity:.23;fill:#010101;enable-background:new}.st2{fill:#fff}]]></style><ellipse class="st0" cx="91.4" cy="88.3" rx="81.9" ry="81.9"></ellipse><path class="st1" d="M149.4 30.3c32 32 32 83.8 0 115.8s-83.9 32-115.8 0"></path><ellipse class="st0" cx="91.4" cy="88.3" rx="81.9" ry="81.9"></ellipse><path class="st1" d="M149.4 30.3c32 32 32 83.8 0 115.8s-83.9 32-115.8 0"></path><path class="st2" d="M76.3 118.3L47.8 89.9l5.7-5.7 22.9 22.9 53.1-50.6 5.5 5.8z"></path></symbol><symbol viewBox="0 0 163.9 163.8" id="icon-circle-house"><ellipse transform="rotate(-45 81.9 81.9)" fill="#0B466A" cx="81.9" cy="81.9" rx="81.9" ry="81.9"></ellipse><path opacity=".23" fill="#010101" d="M139.9 24c32 32 32 83.8 0 115.8s-83.8 32-115.8 0"></path><path fill="#FFF" d="M118.3 104.6c-1-.5-7.5-4.2-10.7-5.5v-5.6c.9-.7 1.1-1 1.1-2.6v-5.2c0-3.7-1.5-6.7-5.9-6.7s-6.3 3-6.3 6.7v5.2c0 1.6.2 1.9 1.1 2.6v5.6c-1.2.5-2.9 1.4-4.5 2.3 5.1 2.2 12.1 5.6 13.4 6.3 2.3 1.3 3 2.9 3.3 4.8h9.7c.2 0 .4-.3.4-.5v-4.5c-.1-1.6-.4-2.2-1.6-2.9m-60.7 3c1.4-.8 8.7-4.2 13.5-6.3-1.7-.9-3.4-1.7-4.7-2.2v-5.6c.9-.7 1.1-1 1.1-2.6v-5.2c0-3.7-1.5-6.7-5.9-6.7s-6.3 3-6.3 6.7v5.2c0 1.6.2 1.9 1.1 2.6v5.6c-3 1.3-9.6 5-10.5 5.5-1.2.7-1.7 1.3-1.7 2.9v4.5c0 .2.5.5.8.5h9.4c.2-2 1-3.6 3.2-4.9m50 6.3v6.8c0 .3-.3.8-.6.8H57.1c-.3 0-.6-.4-.6-.8v-6.8c0-2.4.4-3.3 2.2-4.3 1.4-.8 11-5.2 15.5-7.2V94c-1.4-1-2.2-2.6-2.2-5v-7.8c0-5.5 3.3-10.1 10-10.1s10 4.5 10 10.1V89c0 2.4-.8 4-2.2 5v8.5c4.8 2 14.1 6.4 15.5 7.2 1.8.9 2.3 1.9 2.3 4.2"></path><path fill="none" stroke="#FFF" stroke-width="4.68" stroke-linejoin="round" stroke-miterlimit="10" d="M125.6 112.4V83.3h6.4c2 0 2.9-2.4 1.5-3.8L83.7 36.9c-.6-.5-1.5-.5-2 0L30.6 79.5c-1.4 1.4-.5 3.8 1.5 3.8h6.1v29.1"></path></symbol><symbol viewBox="0 0 163.8 163.8" id="icon-circle-mobile"><ellipse transform="rotate(-45 81.91 81.91)" fill="#0B466A" cx="81.9" cy="81.9" rx="81.9" ry="81.9"></ellipse><path opacity=".23" fill="#010101" d="M139.8 24c32 32 32 83.8 0 115.8s-83.8 32-115.8 0"></path><ellipse transform="rotate(-45 81.91 81.91)" fill="#0B466A" cx="81.9" cy="81.9" rx="81.9" ry="81.9"></ellipse><path opacity=".23" fill="#010101" d="M139.8 24c32 32 32 83.8 0 115.8s-83.8 32-115.8 0"></path><path fill="#FFF" d="M61.7 48.5H102v62.1H61.7V48.5zm20 78.4c-3.4 0-6.1-2.7-6.1-6.1 0-3.4 2.7-6.1 6.1-6.1 3.4 0 6.1 2.7 6.1 6.1.1 3.3-2.7 6.1-6.1 6.1m-4-86.1h8.2c1.1 0 2 .5 2 1.6s-.9 1.6-2 1.6h-8.2c-1.1 0-2-.5-2-1.6s.8-1.6 2-1.6m30.6 2.4c0-5.6-4.6-10.2-10.2-10.2H65.7c-5.6 0-10.2 4.6-10.2 10.2v77.3c0 5.6 4.6 10.2 10.2 10.2H98c5.6 0 10.2-4.6 10.2-10.2V43.2z"></path></symbol><symbol viewBox="0 0 32 32" id="icon-comments"><path d="M25.143 13.714q0 2.482-1.68 4.59t-4.58 3.33-6.312 1.222q-1.535 0-3.142-.286-2.214 1.57-4.964 2.286-.643.16-1.536.286h-.054q-.196 0-.366-.143t-.205-.376q-.018-.054-.018-.116t.01-.116.035-.107l.045-.09.063-.097.07-.09.08-.088.072-.08q.09-.107.41-.446t.465-.527.402-.518.446-.69.366-.785q-2.215-1.286-3.483-3.16t-1.268-4q0-2.483 1.678-4.59t4.58-3.33 6.312-1.223 6.313 1.223 4.58 3.33 1.68 4.59zM32 18.286q0 2.143-1.268 4.01t-3.482 3.15q.18.43.366.787t.446.688.402.52.464.526.41.446q.02.018.072.08t.08.09.07.088.064.098l.045.09.035.106.01.116-.02.116q-.053.25-.23.393t-.394.124q-.892-.125-1.535-.286-2.75-.714-4.964-2.286-1.606.286-3.142.286-4.84 0-8.43-2.357 1.037.072 1.572.072 2.875 0 5.518-.804t4.714-2.304q2.232-1.643 3.43-3.786t1.195-4.536q0-1.375-.41-2.714 2.303 1.268 3.642 3.18t1.338 4.106z"></path></symbol><symbol viewBox="0 0 182 174" id="icon-eho"><g fill="#5A5B5B" fill-rule="evenodd"><path d="M20.8 141.7h-7.1v2.8h6.5v2.4h-6.5v3.4h7.4v2.4H11v-13.4h9.8v2.4zm9 7.4l1.3 1.3c-.5.3-1 .4-1.5.4-1.5 0-3.6-.9-3.6-4.7 0-3.7 2.1-4.7 3.6-4.7s3.6.9 3.6 4.7c0 1.3-.2 2.2-.6 2.9l-1.4-1.3-1.4 1.4zm6.3 3.1l-1.5-1.4c.8-1 1.4-2.6 1.4-4.8 0-6.3-4.7-7-6.4-7-1.8 0-6.4.8-6.4 7 0 6.3 4.7 7 6.4 7 .8 0 2.2-.1 3.4-.9l1.6 1.5 1.5-1.4zm13.1-4.2c0 3.5-2.1 5-5.5 5-1.2 0-3.1-.3-4.2-1.6-.7-.8-1-1.9-1-3.2v-8.9h2.8v8.7c0 1.9 1.1 2.7 2.4 2.7 1.9 0 2.7-.9 2.7-2.6v-8.8h2.9v8.7h-.1zm7.5-5.6l1.7 5.3H55l1.7-5.3zm-2.5 7.6h4.9l.9 2.8h3l-4.7-13.4h-3.2l-4.8 13.4h2.9l1-2.8zm13.8.3h6.7v2.4h-9.5v-13.4H68v11zm17.3-3.6v6h-2.8v-13.4h2.8v5.1h5.2v-5.1h2.8v13.4h-2.8v-6h-5.2zm13.3-.7c0-3.7 2.1-4.7 3.6-4.7s3.6.9 3.6 4.7c0 3.7-2.1 4.7-3.6 4.7-1.4 0-3.6-.9-3.6-4.7zm-2.8 0c0 6.3 4.7 7 6.4 7 1.8 0 6.4-.8 6.4-7 0-6.3-4.7-7-6.4-7-1.7 0-6.4.8-6.4 7zm26.2 2c0 3.5-2.1 5-5.5 5-1.2 0-3.1-.3-4.2-1.6-.7-.8-1-1.9-1-3.2v-8.9h2.8v8.7c0 1.9 1.1 2.7 2.4 2.7 1.9 0 2.7-.9 2.7-2.6v-8.8h2.9v8.7h-.1zm5.1.6c0 .7.4 2.2 2.8 2.2 1.3 0 2.8-.3 2.8-1.7 0-1-1-1.3-2.4-1.7l-1.4-.3c-2.2-.5-4.3-1-4.3-3.9 0-1.5.8-4.1 5.1-4.1 4.1 0 5.2 2.7 5.2 4.3h-2.7c-.1-.6-.3-2-2.7-2-1.1 0-2.3.4-2.3 1.6 0 1 .9 1.3 1.4 1.4l3.3.8c1.8.4 3.5 1.2 3.5 3.6 0 4-4.1 4.4-5.3 4.4-4.9 0-5.7-2.8-5.7-4.5h2.7v-.1zm13.4 4.1h-2.7v-13.4h2.7v13.4zm11.2-13.4h2.6v13.4h-2.8l-5.4-9.5h-.1v9.5h-2.6v-13.4h3l5.3 9.4v-9.4zm12 6.2h5.6v7.2h-1.9l-.3-1.7c-.7.8-1.7 2-4.2 2-3.2 0-6.1-2.3-6.1-7 0-3.6 2-7.1 6.5-7.1 4.1 0 5.7 2.7 5.9 4.5h-2.8c0-.5-1-2.2-2.9-2.2-2 0-3.8 1.4-3.8 4.8 0 3.7 2 4.6 3.9 4.6.6 0 2.7-.2 3.2-2.9h-3.1v-2.2zM13.2 166.4c0-3.7 2.1-4.7 3.6-4.7s3.6.9 3.6 4.7c0 3.7-2.1 4.7-3.6 4.7-1.5-.1-3.6-1-3.6-4.7zm-2.8 0c0 6.3 4.7 7 6.4 7 1.8 0 6.4-.8 6.4-7 0-6.3-4.7-7-6.4-7-1.7-.1-6.4.7-6.4 7zm20.5-.5V162h2.2c1.7 0 2.5.5 2.5 1.8 0 .6 0 2.1-2.1 2.1h-2.6zm0 2.3h3.2c3.6 0 4.3-3.1 4.3-4.3 0-2.6-1.6-4.3-4.2-4.3h-6.1V173h2.8v-4.8zm15.1-2.3V162h2.2c1.7 0 2.5.5 2.5 1.8 0 .6 0 2.1-2.1 2.1H46zm0 2.3h3.2c3.6 0 4.3-3.1 4.3-4.3 0-2.6-1.6-4.3-4.2-4.3h-6.1V173H46v-4.8zm14.4-1.8c0-3.7 2.1-4.7 3.6-4.7s3.6.9 3.6 4.7c0 3.7-2.1 4.7-3.6 4.7-1.5-.1-3.6-1-3.6-4.7zm-2.8 0c0 6.3 4.7 7 6.4 7 1.8 0 6.4-.8 6.4-7 0-6.3-4.7-7-6.4-7-1.7-.1-6.4.7-6.4 7zm20.5-.8V162h3.5c1.6 0 2 1 2 1.8 0 1.3-.7 1.8-2.2 1.8h-3.3zm-2.8 7.4H78v-5.2h3c2.1 0 2.2.7 2.2 2.5 0 1.4.1 2.1.3 2.7h3.1v-.4c-.6-.2-.6-.7-.6-2.7 0-2.5-.6-2.9-1.7-3.4 1.3-.4 2.1-1.7 2.1-3.2 0-1.2-.6-3.8-4.2-3.8h-6.8V173h-.1zm21.4 0h-2.8v-11h-4v-2.3h10.9v2.3h-4.1v11zm19-4.6c0 3.5-2.1 5-5.5 5-1.2 0-3-.3-4.2-1.6-.7-.8-1-1.9-1-3.2v-8.9h2.8v8.7c0 1.9 1.1 2.7 2.4 2.7 1.9 0 2.7-.9 2.7-2.6v-8.8h2.9v8.7h-.1zm13.6-8.7h2.6V173h-2.8l-5.5-9.5v9.5H121v-13.3h2.9l5.3 9.3h.1v-9.3zm10.5 13.3H137v-13.3h2.8V173zm10.9 0h-2.8v-11h-4.1v-2.3h10.9v2.3h-4v11zm14.6 0h-2.8v-5l-4.6-8.3h3.3l2.7 5.8 2.7-5.8h3.2l-4.5 8.3v5zM90.1 0L0 44.4v20.8h10.1v62.5h159.3V65.2h12.1V44.4L90.1 0zm59.8 108.9H29.6V51.8l60.5-30.9 59.8 30.9v57.1z"></path><path d="M117.6 71.9H61.8V51.8h55.8v20.1zm0 28.9H61.8V80.6h55.8v20.2z"></path></g></symbol><symbol viewBox="0 0 1792 1792" id="icon-exclamation"><path d="M1088 1248v224q0 26-19 45t-45 19H768q-26 0-45-19t-19-45v-224q0-26 19-45t45-19h256q26 0 45 19t19 45zm30-1056l-28 768q-1 26-20.5 45t-45.5 19H768q-26 0-45.5-19T702 960l-28-768q-1-26 17.5-45t44.5-19h320q26 0 44.5 19t17.5 45z"></path></symbol><symbol viewBox="0 0 192 170" id="icon-online"><g fill="none" fill-rule="evenodd"><path d="M0 21.23v109.38c0 11.692 9.517 21.23 21.186 21.23h149.38c11.668 0 21.186-9.538 21.186-21.23V21.23c0-11.693-9.518-21.23-21.186-21.23H21.186C9.516 0 0 9.537 0 21.23zm11.007 0c0-5.64 4.634-10.284 10.262-10.284h149.378c5.628 0 10.262 4.56 10.262 10.283v109.38c0 5.64-4.55 10.283-10.262 10.283H21.186c-5.627 0-10.262-4.644-10.262-10.283V21.23h.083z" fill="#B9D3E3"></path><path d="M22.676 29.605v92.63c0 3.482 2.896 6.302 6.372 6.302h133.655c3.476 0 6.373-2.82 6.373-6.303v-92.63c0-3.482-2.814-6.302-6.373-6.302H29.048c-3.476 0-6.372 2.82-6.372 6.303zM95.42 89.478L120.25 64.6l-16.634-5.307 49.158-19.24-19.2 49.26-5.296-16.586-24.828 24.878a5.634 5.634 0 0 1-8.027 0c-2.234-2.24-2.234-5.888 0-8.127z" fill="#0A4569"></path><path d="M64.966 158.805h55.944c3.062 0 5.462 2.488 5.462 5.473a5.462 5.462 0 0 1-5.462 5.473H64.966c-3.063 0-5.463-2.487-5.463-5.472 0-2.985 2.483-5.473 5.463-5.473z" fill="#B9D3E3"></path></g></symbol><symbol viewBox="0 0 32 32" id="icon-paper-plane"><path d="M31.5.196q.59.43.482 1.143l-4.57 27.428q-.09.518-.572.804-.25.143-.554.143-.196 0-.43-.09l-8.088-3.303-4.32 5.268q-.322.41-.876.41-.232 0-.393-.07-.34-.125-.546-.42t-.205-.652v-6.232l15.428-18.91-19.09 16.517-7.05-2.892q-.66-.25-.714-.982-.035-.714.572-1.054L30.286.16q.268-.16.57-.16.358 0 .644.196z"></path></symbol><symbol viewBox="0 0 192 193" id="icon-phone-cta"><g fill="none" fill-rule="evenodd"><path d="M96.248 48.54h18.455c4.056 0 8.276-3.24 8.276-7.314V7.396c0-4.07-3.228-7.313-7.283-7.313h-.58c-19.862.5-40.22 11.304-47.255 26.348-7.945 17.954-12.58 39.565-12.58 62.838 0 23.272 4.635 44.883 12.58 62.836 7.035 15.127 27.393 25.932 47.338 26.43h.58c4.054 0 7.282-3.24 7.282-7.313v-33.828c0-4.073-4.22-7.314-8.276-7.314H96.33c-2.73 0-4.716-1.58-5.71-4.488-3.31-11.803-5.048-21.528-5.048-36.24 0-14.71 1.738-24.436 5.05-36.238.91-3.076 2.895-4.572 5.626-4.572zm19.283-36.654v25.932c0 1.663-1.406 3.076-3.06 3.076-1.74 0-3.063-1.413-3.063-3.076V11.886c0-1.746 1.407-3.16 3.062-3.16 1.654 0 3.06 1.414 3.06 3.16zm-3.06 126.67c1.737 0 3.06 1.413 3.06 3.075v25.934c0 1.662-1.406 3.075-3.06 3.075-1.74 0-3.063-1.414-3.063-3.076V141.63c-.083-1.66 1.324-3.074 3.062-3.074zM79.78 32.083C73.49 46.545 69.6 63.418 68.69 81.04c-.083 1.744-1.573 2.99-3.228 2.908-1.738-.083-3.062-1.58-2.896-3.242.993-18.368 5.048-36.072 11.668-51.116.663-1.58 2.483-2.245 4.056-1.58 1.49.665 2.234 2.494 1.49 4.073z" fill="#356C35"></path><path d="M139.034 16.873c-2.896-1.496-6.455-.333-7.944 2.66-1.49 2.91-.33 6.483 2.648 7.98C162.29 41.972 180 70.898 180 102.898c0 34.492-20.607 65.245-52.47 78.212-3.06 1.246-4.468 4.737-3.227 7.73 1.242 3.075 4.718 4.488 7.697 3.24 36.33-14.794 59.834-49.87 59.834-89.266-.082-36.49-20.275-69.403-52.8-85.943zM58.18 27.43c2.896-1.498 4.137-5.072 2.648-7.98-1.49-2.91-5.05-4.073-7.945-2.66C20.276 33.247 0 66.244 0 102.9c0 18.118 5.048 35.822 14.566 51.116 1.737 2.826 5.38 3.657 8.193 1.91 2.73-1.744 3.557-5.4 1.82-8.227a84.409 84.409 0 0 1-12.828-44.8c.082-32.084 17.876-61.01 46.427-75.47z" fill="#D3E38E"></path></g></symbol><symbol viewBox="0 0 25 32" id="icon-phone"><path d="M25.143 22.143q0 .482-.18 1.26t-.374 1.222q-.376.893-2.18 1.893-1.68.91-3.32.91-.483 0-.94-.062t-1.026-.223-.848-.26-.99-.365-.876-.32q-1.75-.626-3.125-1.483Q9 23.305 6.562 20.867t-3.848-4.723q-.857-1.375-1.482-3.125-.054-.162-.32-.876t-.367-.99-.26-.85T.064 9.28 0 8.34q0-1.643.91-3.32 1-1.805 1.894-2.18.446-.196 1.223-.375t1.26-.18q.25 0 .374.055.322.107.947 1.357.196.34.536.964t.625 1.135.554.955q.054.07.313.446t.384.634.124.51q0 .356-.51.892t-1.106.982-1.107.946-.508.82q0 .162.09.403t.15.366.25.428.206.34q1.357 2.445 3.107 4.195t4.196 3.107q.037.018.34.205t.43.25.365.152.402.09q.32 0 .82-.51t.947-1.107.982-1.107.893-.51q.25 0 .508.126t.634.383.446.313q.446.268.955.554t1.134.625.964.536q1.25.626 1.358.947.054.125.054.375z"></path></symbol><symbol viewBox="0 0 12 14" id="icon-play-button"><path d="M9.25 7c0 .18-.094.344-.25.43l-4.25 2.5c-.078.047-.164.07-.25.07s-.172-.023-.25-.062A.51.51 0 0 1 4 9.5v-5a.51.51 0 0 1 .25-.438.497.497 0 0 1 .5.008L9 6.57c.156.086.25.25.25.43zm1 0c0-2.344-1.906-4.25-4.25-4.25S1.75 4.656 1.75 7 3.656 11.25 6 11.25 10.25 9.344 10.25 7zM12 7A6 6 0 0 1 0 7a6 6 0 0 1 12 0z"></path></symbol><symbol viewBox="0 0 11 14" id="icon-times"><path d="M10.141 10.328a.755.755 0 0 1-.219.531L8.86 11.921a.757.757 0 0 1-1.062 0L5.501 9.624l-2.297 2.297a.757.757 0 0 1-1.062 0L1.08 10.859a.757.757 0 0 1 0-1.062L3.377 7.5 1.08 5.203a.757.757 0 0 1 0-1.062l1.062-1.062a.757.757 0 0 1 1.062 0l2.297 2.297 2.297-2.297a.757.757 0 0 1 1.062 0l1.062 1.062a.757.757 0 0 1 0 1.062L7.625 7.5l2.297 2.297a.757.757 0 0 1 .219.531z"></path></symbol><symbol viewBox="0 0 1792 1792" id="icon-x"><path d="M1490 1322q0 40-28 68l-136 136q-28 28-68 28t-68-28l-294-294-294 294q-28 28-68 28t-68-28l-136-136q-28-28-28-68t28-68l294-294-294-294q-28-28-28-68t28-68l136-136q28-28 68-28t68 28l294 294 294-294q28-28 68-28t68 28l136 136q28 28 28 68t-28 68l-294 294 294 294q28 28 28 68z"></path></symbol><symbol viewBox="0 0 231 157" id="logo-client-recommend"><path fill="#fff" d="M32.34 119.91c0-3.7 2.53-6.08 5.45-6.08a4 4 0 0 1 4.36 4.29c0 3.7-2.36 6-5.43 6-2.78-.02-4.38-1.64-4.38-4.21zm7.09-1.85c0-1.6-.69-2.25-1.71-2.25-1.64 0-2.65 2.06-2.65 4.15 0 1.6.69 2.21 1.75 2.21 1.7 0 2.61-1.98 2.61-4.11zM44.87 115.85h-1.18l.4-1.87h1.18l.17-.76a3.22 3.22 0 0 1 3.49-2.76 4.44 4.44 0 0 1 1.72.27l-.36 1.66h-.59c-.84 0-1.31.15-1.49.93L48 114h1.72l-.4 1.87h-1.73L45.8 124h-2.71zM53.19 119.91c0-3.7 2.53-6.08 5.45-6.08a4 4 0 0 1 4.36 4.29c0 3.7-2.36 6-5.43 6-2.78-.02-4.38-1.64-4.38-4.21zm7.09-1.85c0-1.6-.69-2.25-1.71-2.25-1.64 0-2.65 2.06-2.65 4.15 0 1.6.69 2.21 1.75 2.21 1.7 0 2.61-1.98 2.61-4.11zM69.76 122.67a5.33 5.33 0 0 1-3.49 1.47c-1.73 0-2.69-1.2-2.17-3.37l1.58-6.78h1.85c.65 0 .86.27.63 1.24l-1.24 5.55c-.17.8.08 1.18.69 1.18a4.61 4.61 0 0 0 2.34-.86l1.62-7.11h2.78l-2.29 10h-.72a1.37 1.37 0 0 1-1.58-1.32zM76.58 114h.88c1.2 0 1.54.67 1.49 1.66a3.74 3.74 0 0 1 2.9-1.75 1.78 1.78 0 0 1 .57.1l-.51 2.34h-.34a4.49 4.49 0 0 0-2.94 1L77.09 124h-2.8zM85.9 120a5.91 5.91 0 0 1 5.643-6.165q.178-.008.357 0a4.64 4.64 0 0 1 2.94.84l-.42 1.79h-1a2 2 0 0 0-1.58-.61c-1.94 0-3.2 1.81-3.2 4.14 0 1.45.67 2.15 2 2.15a3.23 3.23 0 0 0 1.94-.59h1l-.44 1.89a5 5 0 0 1-2.74.69c-3.05-.015-4.5-1.655-4.5-4.135zM97.6 110.64h1.68c.72 0 1 .23.74 1.56L97.33 124h-2.78zM101.85 114h1.52c.88 0 1.2.23.84 1.83l-1.87 8.17h-2.78zm.32-2.21a1.55 1.55 0 0 1 1.58-1.51 1.4 1.4 0 0 1 1.43 1.37v.04a1.55 1.55 0 0 1-1.589 1.51h-.011a1.37 1.37 0 0 1-1.411-1.328v-.1zM105 120c0-3.24 2-6.19 5.34-6.19a3.26 3.26 0 0 1 3.6 3.6 8.35 8.35 0 0 1-.32 2.17h-5.91v.42c0 1.6.67 2.19 1.92 2.19a4.47 4.47 0 0 0 2.46-.71h.9l-.44 1.92a6.59 6.59 0 0 1-3.22.72c-2.73 0-4.33-1.41-4.33-4.12zm2.94-2.1h3.53a3.52 3.52 0 0 0 .08-.74c0-1.07-.53-1.58-1.37-1.58-1.09.02-1.85.93-2.18 2.34zM116.6 114h.91a1.256 1.256 0 0 1 1.45 1.3 5.67 5.67 0 0 1 3.72-1.45c1.56 0 2.54 1.28 2.06 3.37l-1.56 6.78h-1.85c-.65 0-.86-.27-.63-1.24l1.24-5.55c.17-.8-.08-1.16-.69-1.16a5.07 5.07 0 0 0-2.55.92l-1.6 7h-2.78zM126.28 120.88l1.16-5h-1.09l.4-1.87h1.11l.61-2.67h2.78l-.61 2.67h1.79l-.4 1.87h-1.83l-1.2 5.06c-.19.84.08 1.3 1.12 1.3h.48l-.36 1.66a4 4 0 0 1-1.54.25c-2.05-.01-2.87-1.25-2.42-3.27zM131.56 123.15l.44-1.89h.9a2.81 2.81 0 0 0 2.21.88c.88 0 1.6-.29 1.6-1 0-.53-.4-.74-1.32-1.07-1.68-.59-2.59-1.28-2.59-2.82 0-2.1 1.54-3.37 4.06-3.37a5.28 5.28 0 0 1 3.2.93l-.42 1.75h-.84a3.09 3.09 0 0 0-2.06-.74c-1 0-1.45.34-1.45 1 0 .46.34.69 1.37 1 1.5.53 2.61 1.14 2.61 2.74 0 2.17-1.62 3.53-4.25 3.53a5.71 5.71 0 0 1-3.46-.94zM145 114.7v-.7h2.61l.38 6.31 3-6.31h2.13l.61 6.31 2.8-6.31h2.23v.72L154.3 124h-2.4l-.67-6.23-2.95 6.23h-2.48zM159 119.91c0-3.7 2.54-6.08 5.45-6.08a4 4 0 0 1 4.36 4.29c0 3.7-2.36 6-5.43 6-2.79-.02-4.38-1.64-4.38-4.21zm7.09-1.85c0-1.6-.69-2.25-1.71-2.25-1.64 0-2.65 2.06-2.65 4.15 0 1.6.69 2.21 1.75 2.21 1.68 0 2.6-1.98 2.6-4.11zM175.55 122.67a5.33 5.33 0 0 1-3.49 1.47c-1.73 0-2.69-1.2-2.17-3.37l1.58-6.78h1.85c.65 0 .86.27.63 1.24l-1.24 5.55c-.17.8.08 1.18.69 1.18a4.61 4.61 0 0 0 2.34-.86l1.62-7.11h2.78l-2.29 10h-.72a1.37 1.37 0 0 1-1.58-1.32zM183.15 110.64h1.68c.72 0 1 .23.74 1.56l-2.68 11.8h-2.79zM191.69 122.76a3.6 3.6 0 0 1-2.84 1.37c-1.79 0-3.22-1-3.22-3.68 0-3.72 2.25-6.61 5.32-6.61a2.89 2.89 0 0 1 2.34.93l1-4.14h1.68c.72 0 1 .23.74 1.56L194 124h-.69a1.42 1.42 0 0 1-1.614-1.195zm.1-1.35l1.11-4.9a2.06 2.06 0 0 0-1.51-.59c-1.89 0-3 1.92-3 4.42 0 1.26.4 1.87 1.43 1.87a3.49 3.49 0 0 0 1.97-.8zM13.7 142h-.76v5.52h-7v-17.86h8.32c5.63 0 7.81 2.09 7.81 6a5.56 5.56 0 0 1-2.19 4.53l3.05 6v1.35h-6.57zm-1-4.25h.74a1.54 1.54 0 0 0 1.76-1.76c0-1.25-.56-1.86-1.76-1.86h-.74zM24.29 129.66h13.54v4.63h-6.52v2.06h4.35v4.35h-4.35v2.3H38v4.5H24.29zM39.07 138.79c0-6.16 3.74-9.44 10-9.44a9.44 9.44 0 0 1 5.73 1.55v4.28h-3a4.35 4.35 0 0 0-2.57-.94c-1.81 0-3.05 1-3.05 4.28 0 3.51 1 4.53 2.77 4.53a4.3 4.3 0 0 0 3-1h2.85v3.92a10.51 10.51 0 0 1-6.36 1.83c-5.83-.02-9.37-3.1-9.37-9.01zM56.12 138.64c0-5.9 4.07-9.29 9.37-9.29s9.37 3.39 9.37 9.29-3.87 9.14-9.37 9.14-9.37-3.23-9.37-9.14zm11.63 0c0-3.18-.87-4.38-2.27-4.38s-2.27 1.2-2.27 4.38.87 4.43 2.27 4.43 2.27-1.25 2.27-4.43zM76.48 129.66h8.81l2.06 7.58h.08l2.09-7.58h8.78v17.82h-6.77v-10h-.08l-2.8 10h-3.79l-2.8-10H82v10h-5.5zM100.53 129.66h8.81l2.06 7.58h.08l2.09-7.58h8.78v17.82h-6.77v-10h-.08l-2.8 10h-3.8l-2.8-10h-.1v10h-5.5zM124.57 129.66h13.54v4.63h-6.51v2.06h4.4v4.35h-4.4v2.3h6.72v4.5h-13.75zM140.33 129.66h6.9l4.12 7.71h.08v-7.71H157v17.82h-6.39l-4.63-8.6h-.08v8.6h-5.62zM159.28 129.66h7.89c6.64 0 9.65 3.13 9.65 8.76 0 5.9-2.93 9.06-9.88 9.06h-7.66zm7.43 13.34c2 0 3-1 3-4.33s-.92-4.45-3-4.45h-.41V143zM192.72 140.86v-11.2h5.83v11.5c0 4.33-3.1 6.52-8.09 6.52-5.55 0-8.37-2.24-8.37-6.52v-11.5h7v11.2c0 1.12.43 1.88 1.81 1.88s1.82-.74 1.82-1.88zM200.2 146.35v-4.22h2.93a4.45 4.45 0 0 0 3 .94c1.07 0 1.78-.2 1.78-.74s-.58-.74-2.42-1.07c-3.23-.59-5.45-1.76-5.45-5.91s3.18-6 7.71-6a12.83 12.83 0 0 1 6.06 1.27v4.2h-2.9a5.35 5.35 0 0 0-2.93-.81c-1.22 0-1.68.25-1.68.69 0 .61.61.71 2.16 1 4.86.87 6.13 2.52 6.13 6 0 3.77-2.8 6.11-8.17 6.11a11.85 11.85 0 0 1-6.22-1.46zM215.42 133.48v-3.82h7v3.82l-1.42 7.71h-4.28zm.38 11.28a3.11 3.11 0 1 1 2.929 2.929 3.11 3.11 0 0 1-2.929-2.929zM184.27 54.13a4.16 4.16 0 0 0-3.46-4c-2.77-.61-3.54-1.63-3.54-1.63s.56 4.13 2.32 5.35a4.64 4.64 0 0 0 4.26.65s-.87-2.07-4.18-3.19a6.85 6.85 0 0 1 4.59 2.8zM184.48 53.62a4.16 4.16 0 0 1 3.32-4.1c2.75-.7 3.48-1.75 3.48-1.75s-.41 4.14-2.14 5.43a4.64 4.64 0 0 1-4.24.8s.8-2.1 4.07-3.33a6.87 6.87 0 0 0-4.5 3zM186.71 45.81a4.16 4.16 0 0 0-2.82-4.46c-2.65-1-3.25-2.14-3.25-2.14s-.07 4.16 1.49 5.64a4.65 4.65 0 0 0 4.12 1.29s-.55-2.17-3.66-3.79a6.87 6.87 0 0 1 4.12 3.46z"></path><path fill="#fff" d="M186.88 45.89a4.16 4.16 0 0 1 2.8-4.47c2.65-1 3.25-2.15 3.25-2.15s.08 4.16-1.47 5.64a4.64 4.64 0 0 1-4.11 1.3s.54-2.18 3.64-3.8a6.86 6.86 0 0 0-4.11 3.47zM188.94 37.74a3.88 3.88 0 0 0-3-3.91c-2.54-.73-3.19-1.73-3.19-1.73s.27 3.87 1.84 5.11a4.33 4.33 0 0 0 3.92.86s-.68-2-3.69-3.22a6.39 6.39 0 0 1 4.1 2.88zM189.44 37.9a3.88 3.88 0 0 1 1.17-4.77c2-1.68 2.24-2.85 2.24-2.85s1.29 3.65.35 5.42a4.32 4.32 0 0 1-3.26 2.36s-.16-2.09 2.11-4.42a6.39 6.39 0 0 0-2.62 4.28zM189.1 30.86a3.38 3.38 0 0 0-3.15-2.92c-2.29-.25-3-1-3-1s.81 3.29 2.35 4.12a3.78 3.78 0 0 0 3.51.15 5.49 5.49 0 0 0-3.66-2.21 5.58 5.58 0 0 1 4 1.86zM189.59 30.62a3.39 3.39 0 0 1 .24-4.28c1.48-1.77 1.46-2.81 1.46-2.81s1.7 2.93 1.17 4.6a3.78 3.78 0 0 1-2.41 2.55 5.5 5.5 0 0 1 1.1-4.14 5.58 5.58 0 0 0-1.56 4.09zM187.27 25.3a2.72 2.72 0 0 0-3-1.71 4 4 0 0 1-2.54-.24s1.24 2.43 2.59 2.8a3 3 0 0 0 2.77-.52 4.41 4.41 0 0 0-3.27-1.07 4.5 4.5 0 0 1 3.44.73zM187.65 24.84a3.12 3.12 0 0 1-1-3.83 4.59 4.59 0 0 0 .5-2.87s2.31 2.1 2.31 3.71a3.48 3.48 0 0 1-1.41 2.91 5.06 5.06 0 0 1-.19-3.94 5.14 5.14 0 0 0-.23 4z"></path><path fill="#fff" d="M187.22 59.15l.08-1.88-.21-.19c-2.24-.62-3.94-3.1-.64-10 2.43-5.1 3.68-10.13 3.46-14.61a14.61 14.61 0 0 0-5-10.89 3.72 3.72 0 0 0-1.61-3.29c-1.44-1-4.73-.4-4.73-.4s1 .33 2.17 2.31a3.38 3.38 0 0 0 3.93 1.64c5.7 6.11 5.59 14.58 1.38 24.6-2.37 5.66-2.14 7.76-1.5 9.75a5.18 5.18 0 0 0 2.67 2.96zm-2.84-37.93a2.73 2.73 0 0 1-1.45-.33 5 5 0 0 1-2-2.16 6.83 6.83 0 0 0 2.09 1.83 13.321 13.321 0 0 0 1.36.66zM43.49 54.13a4.16 4.16 0 0 1 3.46-4c2.77-.61 3.54-1.63 3.54-1.63s-.56 4.13-2.32 5.35a4.64 4.64 0 0 1-4.26.65s.87-2.07 4.18-3.19a6.85 6.85 0 0 0-4.59 2.8zM43.29 53.62a4.16 4.16 0 0 0-3.32-4.1c-2.75-.7-3.48-1.75-3.48-1.75s.41 4.14 2.14 5.43a4.64 4.64 0 0 0 4.24.8s-.8-2.1-4.07-3.33a6.87 6.87 0 0 1 4.5 3zM41.06 45.81a4.16 4.16 0 0 1 2.82-4.46c2.65-1 3.25-2.14 3.25-2.14s.07 4.16-1.49 5.64a4.65 4.65 0 0 1-4.12 1.29s.55-2.17 3.66-3.79a6.87 6.87 0 0 0-4.12 3.46z"></path><path fill="#fff" d="M40.88 45.89a4.16 4.16 0 0 0-2.8-4.47c-2.65-1-3.25-2.15-3.25-2.15s-.08 4.16 1.47 5.64a4.64 4.64 0 0 0 4.11 1.3s-.54-2.18-3.64-3.8a6.86 6.86 0 0 1 4.11 3.47zM38.82 37.74a3.88 3.88 0 0 1 3-3.91c2.54-.73 3.19-1.73 3.19-1.73s-.27 3.87-1.84 5.11a4.33 4.33 0 0 1-3.92.86s.68-2 3.69-3.22a6.39 6.39 0 0 0-4.1 2.88zM38.33 37.9a3.88 3.88 0 0 0-1.17-4.77c-2-1.68-2.24-2.85-2.24-2.85s-1.29 3.65-.35 5.42a4.32 4.32 0 0 0 3.26 2.36s.16-2.09-2.11-4.42a6.39 6.39 0 0 1 2.62 4.28zM38.67 30.86a3.38 3.38 0 0 1 3.15-2.92c2.29-.25 3-1 3-1s-.81 3.29-2.35 4.12a3.78 3.78 0 0 1-3.51.15A5.49 5.49 0 0 1 42.62 29a5.58 5.58 0 0 0-4 1.86zM38.17 30.62a3.39 3.39 0 0 0-.24-4.28c-1.48-1.77-1.46-2.81-1.46-2.81s-1.7 2.93-1.17 4.6a3.78 3.78 0 0 0 2.41 2.55 5.5 5.5 0 0 0-1.1-4.14 5.58 5.58 0 0 1 1.56 4.09zM40.49 25.3a2.72 2.72 0 0 1 3-1.71 4 4 0 0 0 2.54-.24s-1.24 2.43-2.59 2.8a3 3 0 0 1-2.77-.52 4.41 4.41 0 0 1 3.27-1.07 4.5 4.5 0 0 0-3.44.73zM40.11 24.84a3.12 3.12 0 0 0 1-3.83 4.59 4.59 0 0 1-.5-2.87s-2.31 2.1-2.31 3.71a3.48 3.48 0 0 0 1.41 2.91 5.06 5.06 0 0 0 .19-3.94 5.14 5.14 0 0 1 .23 4z"></path><path fill="#fff" d="M43.18 56.15c.64-2 .88-4.09-1.5-9.75-4.2-10-4.32-18.49 1.38-24.6a3.38 3.38 0 0 0 3.93-1.64c1.18-2 2.17-2.31 2.17-2.31s-3.29-.59-4.73.4a3.72 3.72 0 0 0-1.61 3.29 14.61 14.61 0 0 0-5 10.89 30.954 30.954 0 0 0 3.46 14.61c3.3 6.93 1.59 9.41-.64 10l-.21.19.08 1.88a5.18 5.18 0 0 0 2.67-2.96zm1.53-35.59a6.83 6.83 0 0 0 2.09-1.83 5 5 0 0 1-2 2.16 2.73 2.73 0 0 1-1.45.33 13.32 13.32 0 0 0 1.36-.67zM52.67 102.6h-.52l-.42-.16-.69-.57a2.7 2.7 0 0 1-.3-.78l-2.09-11.38c0-.23-.09-.6-.11-.83a7.9 7.9 0 0 1 .1-1.16l1.42-8a.31.31 0 0 0-.35-.38l-16.37 1.43a.26.26 0 0 0-.22.41l6.66 11.9a.9.9 0 0 1 0 .75L33.12 107c-.11.21 0 .36.23.34l26.45-2.31a.48.48 0 0 0 .43-.47v-2.21a.39.39 0 0 0-.388-.392H59.8zM196 67.19c.11-.21 0-.36-.23-.34l-16.65 1.46a.38.38 0 0 0-.35.46l1.44 7.84c0 .23.09.6.11.83a7.9 7.9 0 0 1-.1 1.16l-2.1 11.8a2.84 2.84 0 0 1-.29.79l-.67.61a2.839 2.839 0 0 1-.81.22l-7 .6a.48.48 0 0 0-.43.46v2.24a.39.39 0 0 0 .388.392h.042l26.45-2.32A.26.26 0 0 0 196 93l-6.66-11.9a.9.9 0 0 1 0-.75zM99.19 80.31l-.84.07-.79 3.38 1-.09c1.21-.11 1.75-1.13 1.75-2.32-.02-.74-.37-1.11-1.12-1.04z"></path><path fill="#fff" d="M179.43 77.18L177.19 65a.48.48 0 0 0-.5-.38L52.17 75.24a.59.59 0 0 0-.5.46l-2.25 12.64a2.84 2.84 0 0 0 0 .84l2.24 12.22a.48.48 0 0 0 .5.38l124.51-10.67a.59.59 0 0 0 .5-.46L179.43 78a2.84 2.84 0 0 0 0-.82zM66.54 90.38l-1.26.11-1.17 5.17-6.44.56 3.76-16.67 6.7-.59c4.53-.4 6.56.85 6.56 4.12 0 4.3-3.01 6.85-8.15 7.3zm20.2 3.3l-12.61 1.1 3.76-16.67L90.15 77l-1 4.33-5.81.51-.44 2 4-.35-.91 4-4 .35-.47 2.12 6.16-.54zm18.33-2.84v1.24l-6 .53-1.7-5.24h-.51l-1.24 5.5-6.44.56 3.76-16.67 7.07-.62c4.53-.4 6.56.83 6.56 4.09a6.22 6.22 0 0 1-3.34 5.57zm11.24-3.76a3.87 3.87 0 0 0 2.47-1.2l2.62-.23-.93 4.26a12.2 12.2 0 0 1-5.25 1.56c-4.27.37-7.82-1.18-7.82-6.13 0-5.37 3.76-10.41 10.88-11a9.93 9.93 0 0 1 5.49.73l-.91 4.1-2.73.24a2.81 2.81 0 0 0-2.22-.58c-2.75.24-3.92 3.73-3.92 6.13.01 1.59.83 2.24 2.33 2.11zm19.16 2.34l-12.61 1.1 3.76-16.67 12.26-1.07-1 4.33-5.81.51-.44 2 4-.35-.91 4-4 .35-.47 2.12 6.16-.54zm17.65-1.54l-6 .52-2.12-7.94h-.07L143 88.75l-5.16.45 3.76-16.67 6.44-.56 1.89 7.14h.07l1.68-7.45 5.16-.45zm18-13.55l-3.53.31-2.75 12.22-6.44.56 2.75-12.22-3.55.31 1-4.45 13.52-1.18z"></path><path fill="#fff" d="M67.47 83l-.65.06L66 86.5l.79-.07c1.14-.1 1.73-1.22 1.73-2.42.03-.74-.37-1.1-1.05-1.01zM76.18 57c5.17 0 10.85-1.24 15.19-4.44-.93 8.16-4.13 10.75-12.71 10.75a28.3 28.3 0 0 1-11.06-2.07H57.48v12.72L114 69.08c4.11-6.23 6.06-14.25 6.06-23.79 0-26.35-13.64-36.37-34.92-36.37-19.73 0-30.89 9.51-30.89 25.93C54.28 49.63 63.06 57 76.18 57zm10.33-30.27c3.1 0 4.86 1.45 5.17 13.53a17 17 0 0 1-4.44.62c-4.34 0-5.68-1.65-5.68-7 0-5.02 1.34-7.19 4.96-7.19z"></path><path fill="#fff" d="M152.87 34.53c-6.69 0-11.87 2-15.36 4.89 1-7.88 4.29-11.87 10.48-11.87 5.09 0 7.18 1.1 9.18 2.49h12.27V10.39a83 83 0 0 0-20.25-2.19c-16.43 0-27.43 4.87-33.65 13.83 3.6 5.64 5.56 13.28 5.56 23.27 0 9.31-1.87 17.17-5.79 23.33l.14.2 56.91-4.88a27.721 27.721 0 0 0 1.37-8.86c0-14.27-8.88-20.56-20.86-20.56zM142 65.07c-3.39 0-4.59-2.39-4.89-13.77a19.28 19.28 0 0 1 4.19-.4c3.89 0 5.49 1.8 5.49 6.78s-1.3 7.39-4.79 7.39z"></path></symbol><symbol viewBox="0 0 275 35" id="logo-quickenloans"><g fill="#B5121B" fill-rule="evenodd"><path d="M.576 15.19c-1.47 7.923 1.79 14.923 10.04 14.923 1.215 0 2.43-.132 3.71-.462.19 3.963 2.174 5.35 6.01 5.35l3.455-.198 1.28-6.67c-.768.198-1.535.33-2.303.33-1.023 0-2.494-.198-2.43-1.52 4.157-2.442 6.587-7.395 7.42-11.753C29.354 6.603 25.9 0 17.14 0c-4.157 0-7.675 1.19-11 4.49-3.134 2.973-4.86 6.87-5.564 10.7zm12.087 8.32c-4.413 0-3.262-5.284-2.622-8.52.576-3.17 1.472-8.386 5.693-8.386 2.11 0 2.877 1.32 3.005 3.236.064 1.717-.255 4.16-.575 5.877-.576 3.104-1.47 7.792-5.5 7.792zm26.86 6.207l.64-3.566H40.1c-1.408 2.84-4.414 3.963-7.1 3.963-1.727 0-3.326-.396-4.413-1.65-1.215-1.52-1.023-3.435-.64-5.482l2.88-15.055h8.185l-2.495 13.14c-.255 1.388-.575 2.907 1.28 2.907.83 0 1.662-.463 2.174-1.255.513-.726.704-1.52.832-2.31l2.367-12.55h8.185l-4.093 21.86h-7.74zm22.64-23.972h-8.186L55.064 0h8.186l-1.087 5.745zm-4.477 23.972H49.5l4.093-21.792h8.186l-4.094 21.792zm24.047-8.19c-1.79 5.615-6.268 8.652-11.64 8.652-3.07 0-5.372-.727-7.163-2.972-1.727-2.246-2.174-5.15-1.6-8.255 1.217-6.538 6.525-11.36 12.984-11.36 5.18 0 8.762 3.17 8.314 8.586l-7.355.66v-.198c0-1.52 0-3.17-1.854-3.17-2.623 0-3.263 3.566-3.647 5.48-.383 2.048-.96 5.35 1.727 5.35 1.79 0 2.75-1.65 3.262-3.236l6.97.462zm18.482-6.074l4.413 14.264h-8.57L93.756 21l-2.558 2.708-1.15 6.01H81.86L87.36.46h8.187l-2.942 15.783 2.174-2.443 6.075-5.877h7.098l-7.738 7.528z"></path><path d="M119.465 21.858c-.703 1.85-1.855 2.642-3.71 2.642-2.493 0-3.005-1.717-2.43-4.028h14.134l.19-1.123c1.344-7.133-2.045-11.822-9.08-11.822-3.006 0-6.46 1.057-9.018 3.368-2.366 2.113-4.093 5.283-4.668 8.19-.576 3.103.064 6.074 1.918 8.188 1.983 2.18 4.86 2.84 7.93 2.84 4.99 0 9.977-2.444 12.28-7.727l-7.547-.53zm-5.372-5.613c.32-1.98 1.47-3.698 3.645-3.698 2.303 0 2.686 1.585 2.303 3.698h-5.947zm25.39-8.32l-.576 3.037h.064c1.472-2.443 4.094-3.5 6.652-3.5 1.983 0 4.157.595 5.052 2.312.96 1.783.512 4.292.064 6.537l-2.494 13.407h-8.186l2.558-13.208c.256-1.32.576-3.17-1.15-3.17-2.303 0-2.88 1.98-3.2 3.764l-2.365 12.547h-8.185l4.093-21.725h7.675zm36.26 21.924h-19.888l5.5-29.388h8.76l-4.156 22.19h11.127l-1.343 7.197zm16.18-22.322c-6.65 0-12.47 4.557-13.813 11.557-1.215 6.604 3.07 11.16 9.53 11.16 6.46 0 12.47-4.556 13.75-11.16 1.28-7-2.814-11.557-9.466-11.557zm-1.022 5.35c2.815 0 2.176 3.83 1.728 5.877-1.087 5.81-2.558 6.273-4.03 6.273-1.47 0-2.813-.396-1.662-6.273.384-2.047 1.15-5.878 3.965-5.878zm31.658 16.97c-.32-1.518-.064-3.17.256-4.82l1.407-7.66c.577-3.104 1.472-5.943-.958-7.925-1.79-1.518-4.925-1.915-7.42-1.915-4.732 0-10.04 1.387-12.342 6.868l7.42.727c.574-1.85 2.045-2.444 3.708-2.444 1.982 0 2.366.792 1.982 2.707l-.063.198c-2.814.198-5.756.528-8.57 1.387-3.134.924-6.14 3.236-6.843 6.67-.832 4.358 2.238 6.603 6.14 6.603 2.877 0 5.435-.924 7.546-3.5-.192 1.057-.32 2.047-.256 3.038h7.994v.066zm-6.78-9.84c-.447 2.38-1.022 5.086-4.092 5.086-1.28 0-2.046-.594-1.79-1.98.51-2.642 3.964-3.303 5.947-3.5l-.064.395zm20.914-11.95l-.576 3.102h.064c1.47-2.51 4.093-3.5 6.65-3.5 1.984 0 4.158.595 5.118 2.246.96 1.783.51 4.292.064 6.537l-2.56 13.472h-8.185l2.495-13.273c.255-1.32.575-3.17-1.152-3.17-2.238 0-2.877 1.98-3.197 3.764l-2.366 12.613h-8.187l4.093-21.86h7.74v.067zm17.523 14.66c.064 2.112 2.302 2.376 4.093 2.376.832 0 3.134-.066 3.39-1.386.192-1.123-2.558-1.32-3.326-1.387-4.285-.66-9.4-1.518-8.314-7.33.448-2.51 2.11-4.424 4.35-5.745 2.3-1.32 4.732-1.65 7.098-1.65 3.965 0 7.866 1.584 8.506 5.68l-6.46 1.253c-.32-1.52-1.854-1.915-3.325-1.915-.64 0-2.686.198-2.878 1.123-.13.66.51.99 1.022 1.122.83.265 2.494.397 3.454.53 1.854.263 3.965.527 5.436 1.65 1.726 1.254 2.366 3.236 1.918 5.547-1.15 6.01-7.61 7.726-12.407 7.726-4.732 0-8.76-1.584-9.4-6.668l6.842-.925zm18.483-14.66c.32 0 .767.065.767-.332 0-.33-.256-.33-.512-.33h-.575v.66h.32zm1.087 1.385h-.384l-.638-1.056h-.384v1.056h-.32v-2.31h1.023c.193 0 .385 0 .577.13.192.133.256.33.256.53 0 .462-.32.594-.704.66l.575.99zM271.1 8.255c0 .924.766 1.65 1.662 1.65.895 0 1.662-.726 1.662-1.65 0-.925-.767-1.65-1.662-1.65-.96 0-1.663.725-1.663 1.65zm-.385 0c0-1.123.895-2.047 2.047-2.047 1.15 0 2.046.924 2.046 2.047a2.039 2.039 0 0 1-2.046 2.047 2.039 2.039 0 0 1-2.047-2.047z"></path></g></symbol><symbol viewBox="0 0 59.9 55" id="logo-rocket-simp"><path fill="#d71227" d="M30 11.8c9.4 0 16.7 7.2 16.7 17.1 0 7.8-3.9 12.5-9.1 16l7.2 9.6a30.2 30.2 0 0 0 14.5-25.6C59.3 12.5 46.3.5 30 .5S.6 12.5.6 28.9C.6 40 6.2 48.4 15.1 54.5l7.2-9.6c-5.3-3.5-9.1-8.2-9.1-16 0-9.9 7.3-17.1 16.8-17.1z"></path></symbol><symbol viewBox="0 0 748.06 208.33" id="logo-rocket"><path d="M227.58 144.11c0 6.11-4 10.6-9.95 10.6-2.83 0-6.03-1.38-7.68-4.29v3.88h-2.83v-30.41h2.83v13.95c1.74-2.83 4.89-4.25 7.93-4.25 5.69 0 9.7 4.45 9.7 10.52zm-2.87.04c0-4.45-2.79-7.89-7.24-7.89-4.33 0-7.76 3.28-7.76 7.84 0 4.49 3.32 7.93 7.68 7.93 4.32 0 7.32-3.27 7.32-7.88zM248.65 134l-8.53 21.11c-2.18 5.7-4.65 7.93-8.37 7.93h-.24l-.57-2.75h.36c2.47 0 4.53-1.58 6.35-6.23l.28-.69L229.2 134h3.11l7.08 15.93 6.23-15.93h3.03zm38.09 20.78l-2.67-2.67a14.604 14.604 0 0 1-8.29 2.59c-7.97 0-14.56-6.39-14.56-14.76 0-8.37 6.59-14.76 14.56-14.76 8.01 0 14.56 6.39 14.56 14.72 0 4.17-1.66 7.89-4.29 10.56l4.41 4.33h-3.72zm-4.81-4.81l-4.93-4.93h3.52l3.36 3.28c2.06-2.14 3.32-5.1 3.32-8.37 0-6.63-5.1-11.89-11.4-11.89-6.27 0-11.4 5.26-11.4 11.89 0 6.59 5.13 11.85 11.4 11.85 2.24-.01 4.35-.7 6.13-1.83zM312.9 134v20.3h-2.83v-3.36c-1.29 2.22-3.72 3.76-7 3.76-4.81 0-7.8-2.75-7.8-8.41V134h2.83v11.69c0 4.21 1.98 6.47 5.46 6.47 3.76 0 6.51-2.75 6.51-6.59V134h2.83zm5.62-6.6c0-1.21.93-2.14 2.14-2.14s2.14.93 2.14 2.14-.93 2.14-2.14 2.14c-1.21.01-2.14-.92-2.14-2.14zm.69 6.6h2.83v20.3h-2.83V134zm8.13 10.19c0-6.27 4.53-10.6 10.6-10.6 2.67 0 4.77.89 6.51 2.14l-1.33 2.39c-1.21-.97-2.95-1.86-5.1-1.86-4.41 0-7.76 3.15-7.76 7.84 0 4.77 3.36 7.93 7.56 7.93 2.63 0 4.25-.93 5.66-2.02l1.21 2.26c-1.82 1.42-4 2.43-7.04 2.43-5.79 0-10.31-4.24-10.31-10.51zm21.99-20.3h2.83v19.33l9.54-9.22h3.8l-10.31 9.58 10.68 10.72h-3.88l-9.83-10.07v10.07h-2.83v-30.41zM387.35 145h-16.78c.32 4.33 3.11 7.08 7.24 7.08 3.15 0 5.1-1.41 6.47-2.79l1.9 1.66c-1.54 1.74-4.04 3.72-8.37 3.72-6.31 0-10.15-4.69-10.15-10.51 0-6.03 4.29-10.56 10.03-10.56 5.7 0 9.67 4.33 9.67 11.08v.32zm-3.04-2.27c-.44-4.17-2.95-6.63-6.59-6.63-3.6 0-6.75 2.39-7.16 6.63h13.75zm25.72-.65v12.21h-2.83v-11.65c0-4.04-2.06-6.47-5.66-6.47-3.64 0-6.27 2.75-6.27 6.51v11.61h-2.83V134h2.83v3.19c1.29-2.26 3.72-3.6 6.96-3.6 4.81 0 7.8 2.91 7.8 8.49zm33.28 9.43v2.79h-15.85v-28.71h3.03v25.92h12.82zm2.38-7.36c0-6.19 4.41-10.56 10.47-10.56 6.15 0 10.48 4.37 10.48 10.56s-4.33 10.56-10.48 10.56c-6.06-.01-10.47-4.38-10.47-10.56zm18.04 0c0-4.69-3.11-7.85-7.56-7.85-4.41 0-7.56 3.19-7.56 7.8 0 4.73 3.24 7.89 7.56 7.89 4.49 0 7.56-3.19 7.56-7.84zM491.11 134v20.38h-2.83v-4c-1.78 3.11-4.69 4.33-7.85 4.33-5.78 0-9.83-4.41-9.83-10.52 0-6.19 4.13-10.6 9.83-10.6 3.24 0 6.23 1.37 7.85 4.29V134h2.83zm-2.63 10.11c0-4.49-3.28-7.84-7.64-7.84-4.29 0-7.32 3.19-7.32 7.93 0 4.65 2.91 7.85 7.28 7.85 4.4-.02 7.68-3.46 7.68-7.94zm26.04-2.03v12.21h-2.83v-11.65c0-4.04-2.06-6.47-5.66-6.47-3.64 0-6.27 2.75-6.27 6.51v11.61h-2.83V134h2.83v3.19c1.29-2.26 3.72-3.6 6.96-3.6 4.81 0 7.8 2.91 7.8 8.49zm3.88 9.67l1.82-1.94c1.46 1.37 3.24 2.43 6.03 2.43 2.47 0 4.29-1.21 4.29-3.32 0-2.18-1.74-2.87-5.02-3.88-3.11-.93-6.19-2.18-6.19-5.78 0-3.44 2.83-5.66 6.83-5.66 3.32 0 5.42 1.21 6.75 2.59l-1.74 1.9c-1.21-1.13-2.79-2.02-5.01-2.02-2.47 0-4 1.17-4 3.07 0 2.02 2.02 2.67 4.81 3.56 3.44 1.09 6.43 2.26 6.43 6.15 0 3.52-2.95 5.87-7.16 5.87-3.59-.02-5.94-1.11-7.84-2.97zM237.09 77.92l21.33 27.37h-15.29L223.6 79.73v25.56h-12.83v-52.2h12.83V76.4l18.87-23.32h15.21l-20.59 24.84zm39.9 16.63h24.83v10.74h-37.66V53.08h36.47v10.74h-23.64v9.55h21.33v10.44h-21.33zm30.05-41.47v10.73h15.91v41.48h12.79V63.81h15.83V53.08z"></path><path d="M307.04 53.08v10.73h15.91v41.48h12.79V63.81h15.82V53.08zM76.81 85.23l15.66 20.06H77.78L59.06 80.13v25.16H46.24v-52.2h23.49c11.19 0 19.02 6.94 19.02 16.93 0 7.07-4.55 13.49-11.94 15.21zm-.74-15.07c0-3.88-3.06-6.56-7.53-6.56h-9.4v13.2h9.4c4.54 0 7.53-2.69 7.53-6.64z"></path><path fill="#D71227" d="M123.49 63.44c9.41 0 16.76 7.2 16.76 17.09 0 7.85-3.87 12.51-9.09 16.04l7.16 9.59c8.93-6.08 14.53-14.53 14.53-25.63 0-16.38-13.01-28.33-29.36-28.33S94.12 64.15 94.12 80.54c0 11.1 5.59 19.55 14.53 25.63l7.16-9.59c-5.23-3.54-9.09-8.2-9.09-16.04 0-9.9 7.36-17.1 16.77-17.1z"></path><path d="M197.89 90.84l6.73 9.15c-4.87 4.34-10.94 6.18-18.36 6.18-14.69 0-27.35-10.72-27.35-27.05 0-16.04 12.59-26.91 27.35-26.91 7.12 0 13.49 1.83 18.29 5.65l-6.96 9.52c-2.85-2.25-6.16-3.94-11.25-3.94-8.09 0-14.62 6.44-14.62 15.89 0 9.29 6.52 15.59 14.84 15.59 4.87 0 8.41-1.84 11.33-4.08zM372.44 53.08h8.38l16.84 24.34 16.91-24.34h8.6v52.2h-7.43V63.89l-16.91 24.26h-2.35l-16.62-24.26v41.39h-7.43v-52.2z"></path><g><path d="M429.58 86.75c0-11.18 8.16-19.26 19.48-19.26 11.54 0 19.48 8.09 19.48 19.26 0 11.25-7.94 19.26-19.48 19.26-11.32.01-19.48-8.01-19.48-19.26zm31.83 0c0-7.57-5.07-12.72-12.35-12.72-7.21 0-12.28 5.15-12.28 12.72 0 7.65 5.22 12.72 12.28 12.72 7.35 0 12.35-5.22 12.35-12.72zm33.68-18.52v6.4h-2.87c-7.06 0-10.22 5.15-10.22 12.64v18.01h-6.91V68.23H482v6.54c2.35-4.78 6.18-6.54 10.29-6.54h2.8zm10.89 22.94V74.48h-6.4v-6.25h6.4V57.57l6.98-2.28v12.94h10.44v6.25h-10.44v15.73c0 6.25 3.31 8.82 9.26 8.82h.66l-1.1 6.84h-.29c-10.44 0-15.51-4.56-15.51-14.7zm59.84-22.94v34.26c0 12.2-7.43 18.82-19.19 18.82-8.38 0-13.68-3.09-17.35-8.02l5.66-3.6c2.06 2.65 5.73 5.37 11.98 5.37 7.5 0 11.91-4.34 11.91-12.06v-4.63c-2.87 4.71-7.57 6.91-13.38 6.91-10.44 0-17.94-7.79-17.94-18.75 0-10.88 7.28-19.04 17.94-19.04 5.96 0 10.37 2.5 13.38 6.91v-6.18h6.99zm-6.76 18.08c0-6.69-5.07-12.65-12.21-12.65-7.35 0-12.2 5.59-12.2 12.79 0 7.35 5.07 12.57 12.28 12.57 7.28.01 12.13-5.5 12.13-12.71zm51.32-18.08v37.13h-6.99v-6.54c-2.94 5.07-7.79 7.21-13.45 7.21-10.44 0-17.87-8.01-17.87-19.19 0-11.32 7.5-19.34 17.87-19.34 5.74 0 10.81 2.35 13.45 7.06v-6.32h6.99zm-6.62 18.52c0-7.35-5.37-12.79-12.5-12.79-7.06 0-11.98 5.15-11.98 12.87 0 7.57 4.78 12.72 11.91 12.72 7.21 0 12.57-5.52 12.57-12.8zm51.18-18.52v34.26c0 12.2-7.43 18.82-19.19 18.82-8.38 0-13.68-3.09-17.35-8.02l5.66-3.6c2.06 2.65 5.74 5.37 11.99 5.37 7.5 0 11.91-4.34 11.91-12.06v-4.63c-2.87 4.71-7.57 6.91-13.38 6.91-10.44 0-17.94-7.79-17.94-18.75 0-10.88 7.28-19.04 17.94-19.04 5.96 0 10.37 2.5 13.38 6.91v-6.18h6.98zm-6.76 18.08c0-6.69-5.07-12.65-12.21-12.65-7.35 0-12.2 5.59-12.2 12.79 0 7.35 5.07 12.57 12.28 12.57 7.28.01 12.13-5.5 12.13-12.71zm49.7 2.43H668.4c.66 6.91 5.22 11.17 11.76 11.17 5.22 0 8.46-2.28 10.81-4.63l4.78 3.6c-2.94 3.53-7.65 7.06-15.66 7.06-11.4 0-18.75-8.31-18.75-19.12 0-11.1 7.94-19.34 18.53-19.34 10.73 0 18.01 7.94 18.01 20.29v.97zm-7.35-5.07c-.74-6.54-4.71-10.44-10.59-10.44-5.74 0-10.59 3.82-11.47 10.44h22.06z"></path></g></symbol></svg>